<?xml version="1.0" encoding="utf-8"?>
<!-- Generator: Adobe Illustrator 22.0.1, SVG Export Plug-In . SVG Version: 6.00 Build 0)  -->
<svg version="1.1" id="Layer_1" xmlns="http://www.w3.org/2000/svg" xmlns:xlink="http://www.w3.org/1999/xlink" x="0px" y="0px"
	 viewBox="0 0 25 25" style="enable-background:new 0 0 25 25;" xml:space="preserve">
<style type="text/css">
	.st0{fill:#FFFFFF;}
	.st1{fill:#14213D;}
	.st2{fill:#4EA8DE;}
	.st3{fill:#0E162B;}
</style>
<circle class="st0" cx="12.5" cy="12.5" r="12"/>
<circle class="st1" cx="12.5" cy="12.5" r="10.5"/>
<path class="st2" d="M6.4,10.6c-0.5,0-1-0.5-1-1c0-0.5,0.5-0.9,1-0.9c0.5,0,1,0.5,1,1C7.4,10.2,7,10.6,6.4,10.6z"/>
<path class="st2" d="M7.4,14c0,0.5-0.4,1-1,1c-0.5,0-1-0.4-1-1c0-0.5,0.4-1,0.9-1C7,13.1,7.4,13.5,7.4,14z"/>
<path class="st2" d="M12.9,7.9c-0.4,0.1-0.8-0.2-0.9-0.7c0-0.4,0.3-0.8,0.7-0.8c0.4,0,0.8,0.3,0.8,0.8C13.6,7.5,13.3,7.8,12.9,7.9z"
	/>
<path class="st2" d="M8.7,11.6c0.3,0,0.4,0.2,0.4,0.4c0,0.2-0.2,0.4-0.4,0.4c-0.3,0-0.4-0.2-0.4-0.5C8.3,11.8,8.5,11.5,8.7,11.6z"/>
<g>
	<g>
		<path class="st0" d="M14.1,12l-4.5,6.3H6.8l4.5-6.2L7,6.2h2.9"/>
		<path class="st0" d="M14.9,13l-1.3,1.9l2.3,3.5l0.1,0h2.7C18,17.3,15.6,13.9,14.9,13z"/>
		<path class="st0" d="M12.8,10.2l2.8-4h2.8l-7,9.7 M12.5,13.8"/>
	</g>
</g>
<path class="st2" d="M16.5,11.6c0.3,0,0.4,0.2,0.4,0.4c0,0.2-0.2,0.4-0.4,0.4c-0.3,0-0.4-0.2-0.4-0.5C16,11.8,16.2,11.5,16.5,11.6z"
	/>
<path class="st2" d="M12.9,17.8c-0.4,0.1-0.8-0.2-0.9-0.7c0-0.4,0.3-0.8,0.7-0.8c0.4,0,0.8,0.3,0.8,0.8
	C13.6,17.4,13.3,17.7,12.9,17.8z"/>
<path class="st2" d="M18.9,10.6c-0.5,0-1-0.5-1-1c0-0.5,0.5-0.9,1-0.9c0.5,0,1,0.5,1,1C19.9,10.2,19.4,10.6,18.9,10.6z"/>
<path class="st2" d="M19.9,14c0,0.5-0.4,1-1,1c-0.5,0-1-0.4-1-1c0-0.5,0.4-1,0.9-1C19.4,13.1,19.9,13.5,19.9,14z"/>
</svg>
