<?xml version="1.0" encoding="utf-8"?>
<!-- Generator: Adobe Illustrator 22.0.1, SVG Export Plug-In . SVG Version: 6.00 Build 0)  -->
<svg version="1.1" id="Layer_1" xmlns="http://www.w3.org/2000/svg" xmlns:xlink="http://www.w3.org/1999/xlink" x="0px" y="0px"
	 viewBox="0 0 25 25" style="enable-background:new 0 0 25 25;" xml:space="preserve">
<style type="text/css">
	.st0{fill:#FFFFFF;}
	.st1{fill:#14213D;}
	.st2{fill:#4EA8DE;}
	.st3{fill:#0E162B;}
</style>
<circle class="st0" cx="12.5" cy="12.5" r="12"/>
<circle class="st1" cx="12.5" cy="12.5" r="10.5"/>
<g>
	<path class="st2" d="M20,11.9l-1.7,2.4h-1.1l1.7-2.3l-1.6-2.2h1.1"/>
	<g>
		<path class="st2" d="M6.2,18.7C6.2,18.7,6.3,18.7,6.2,18.7c2.8-3.8,5.6-7.6,8.3-11.4c0.4-0.5,0.8-1.1,1.2-1.6c0,0,0,0,0.1,0
			c1,0,2,0,2.9,0c0,0,0,0,0,0c0,0,0,0,0,0.1c-0.8,1.1-1.6,2.1-2.3,3.2c-2.4,3.2-4.7,6.5-7.1,9.7c0,0,0,0,0,0.1
			C8.2,18.7,7.2,18.7,6.2,18.7z"/>
		<path class="st0" d="M9.5,5.7C9.7,6,9.9,6.2,10,6.5c0.7,1,1.4,2,2.1,3c0,0,0,0,0,0.1c-0.5,0.6-1,1.2-1.5,1.9c0,0,0,0,0,0
			c-0.1-0.2-0.2-0.3-0.3-0.5C9,9.2,7.7,7.5,6.4,5.7c0,0,0,0,0,0C7.4,5.7,8.5,5.7,9.5,5.7z"/>
		<path class="st0" d="M18.9,18.7C18.9,18.7,18.9,18.7,18.9,18.7c-1,0-2,0-3,0c0,0-0.1,0-0.1,0c-0.9-1.3-1.8-2.6-2.7-3.9
			c0,0,0,0,0-0.1c0.5-0.7,1-1.4,1.5-2c0,0,0,0,0,0C16.1,14.7,17.5,16.7,18.9,18.7z"/>
	</g>
	<path class="st2" d="M6.9,9.7h1.1L6.3,12L8,14.3H6.9l-1.7-2.4"/>
</g>
</svg>
