<?xml version="1.0" encoding="utf-8"?>
<!-- Generator: Adobe Illustrator 22.0.1, SVG Export Plug-In . SVG Version: 6.00 Build 0)  -->
<svg version="1.1" id="Layer_1" xmlns="http://www.w3.org/2000/svg" xmlns:xlink="http://www.w3.org/1999/xlink" x="0px" y="0px"
	 viewBox="0 0 25 25" style="enable-background:new 0 0 25 25;" xml:space="preserve">
<style type="text/css">
	.st0{fill:#FFFFFF;}
	.st1{fill:#14213D;}
	.st2{fill:#4EA8DE;}
	.st3{fill:#0E162B;}
</style>
<circle class="st0" cx="12.5" cy="12.5" r="12"/>
<circle class="st1" cx="12.5" cy="12.5" r="10.5"/>
<g>
	<g>
		<g>
			<path class="st0" d="M17.7,10c-0.1-0.6-0.6-1.5-2-1.5c-1,0-1.7,0.7-1.7,1.4c0,0.6,0.4,1.1,1.2,1.2l1.5,0.3c2,0.4,3,1.7,3,3.2
				c0,1.7-1.4,3.3-3.9,3.3c-2.9,0-3.6-2.1-4.1-3.5l1.3-0.4c0,0.5,1.2,2,2.8,2c1.1,0,1.7-0.6,1.7-1.3c0-0.6-0.5-1.1-1.3-1.3L14.8,13
				C13.1,12.7,12,11.6,12,10c0-1.9,1.7-3.4,3.8-3.4c2.6,0,3.6,1.6,3.9,2.8L17.7,10z"/>
		</g>
		<g>
			<path class="st2" d="M11.9,12.1l-4.1,5.7H5.3l4.1-5.6L5.5,6.9H8"/>
			<path class="st0" d="M12.6,13l-1.1,1.7l2.1,3.1l0.1,0h2.4C15.4,16.8,13.3,13.8,12.6,13z"/>
		</g>
		<rect x="15.3" y="17.3" class="st0" width="1.3" height="1.3"/>
	</g>
	<rect x="15.3" y="5.9" class="st0" width="1.3" height="1.3"/>
</g>
</svg>
