<?xml version="1.0" encoding="utf-8"?>
<!-- Generator: Adobe Illustrator 23.0.1, SVG Export Plug-In . SVG Version: 6.00 Build 0)  -->
<svg version="1.1" id="Layer_1" xmlns="http://www.w3.org/2000/svg" xmlns:xlink="http://www.w3.org/1999/xlink" x="0px" y="0px"
	 viewBox="0 0 100 100" style="enable-background:new 0 0 100 100;" xml:space="preserve">
<style type="text/css">
	.st0{fill:#14213D;stroke:#FFFFFF;stroke-width:2;stroke-miterlimit:10;}
	.st1{fill:#4EA8DE;}
	.st2{fill:#FFFFFF;}
</style>
<circle class="st0" cx="50.2" cy="49.8" r="45.8"/>
<g>
	<path class="st1" d="M24.8,43.3c-2.2,0-3.9-1.8-3.9-4c0-2,1.9-3.8,3.9-3.8c2.1,0,3.9,1.8,3.9,4C28.7,41.7,27,43.3,24.8,43.3z"/>
	<path class="st1" d="M28.7,57.2c0,2.2-1.7,3.9-3.9,3.9c-2.1,0-3.9-1.7-3.9-3.8c0-2.2,1.7-3.9,3.8-4C26.9,53.4,28.7,55,28.7,57.2z"
		/>
	<path class="st1" d="M50.9,32.4c-1.7,0.2-3.3-1-3.5-2.7c-0.2-1.8,1.2-3.3,2.9-3.3c1.7,0,3.1,1.3,3.1,3C53.4,31,52.4,32.2,50.9,32.4
		z"/>
	<path class="st1" d="M34.1,47.2c1,0,1.7,0.8,1.7,1.8c0,1-0.8,1.7-1.8,1.7c-1,0-1.7-0.8-1.7-1.9C32.4,48.1,33.1,47.1,34.1,47.2z"/>
	<g>
		<g>
			<path class="st2" d="M55.7,49L37.7,74.3H26.3l18.1-24.8L26.9,25.7h11.5"/>
			<path class="st2" d="M58.9,52.9l-5.1,7.6l9.3,14l0.5,0h10.9C71.4,70.1,61.8,56.7,58.9,52.9z"/>
			<path class="st2" d="M50.3,41.7l11.1-16h11.2l-28,38.8 M49.3,56.4"/>
		</g>
	</g>
	<path class="st1" d="M65.1,47.2c1,0,1.7,0.8,1.7,1.8c0,1-0.8,1.7-1.8,1.7c-1,0-1.7-0.8-1.7-1.9C63.4,48.1,64.1,47.1,65.1,47.2z"/>
	<path class="st1" d="M50.9,72.3c-1.7,0.2-3.3-1-3.5-2.7c-0.2-1.8,1.2-3.3,2.9-3.3c1.7,0,3.1,1.3,3.1,3
		C53.4,70.9,52.4,72.1,50.9,72.3z"/>
	<path class="st1" d="M74.9,43.3c-2.2,0-3.9-1.8-3.9-4c0-2,1.9-3.8,3.9-3.8c2.1,0,3.9,1.8,3.9,4C78.8,41.7,77.1,43.3,74.9,43.3z"/>
	<path class="st1" d="M78.8,57.2c0,2.2-1.7,3.9-3.9,3.9c-2.1,0-3.9-1.7-3.9-3.8c0-2.2,1.7-3.9,3.8-4C77,53.4,78.7,55,78.8,57.2z"/>
</g>
</svg>
