<?xml version="1.0" encoding="utf-8"?>
<!-- Generator: Adobe Illustrator 22.0.1, SVG Export Plug-In . SVG Version: 6.00 Build 0)  -->
<svg version="1.1" id="Layer_1" xmlns="http://www.w3.org/2000/svg" xmlns:xlink="http://www.w3.org/1999/xlink" x="0px" y="0px"
	 viewBox="0 0 250 140" style="enable-background:new 0 0 250 140;" xml:space="preserve">
<style type="text/css">
	.st0{fill:#14213D;}
	.st1{fill:none;stroke:#FFFFFF;stroke-width:2;stroke-miterlimit:10;}
	.st2{fill:#FFFFFF;}
	.st3{fill:#4EA8DE;}
	.st4{fill:#FFFFFF;stroke:#FFFFFF;stroke-miterlimit:10;}
</style>
<path class="st0" d="M180.6,4.9c37.6,0,67.7,31.7,65.1,69.9c-2.2,32.2-28.3,58.2-60.4,60.4c-38.1,2.6-69.9-27.5-69.9-65.1
	C115.3,34.1,144.5,4.9,180.6,4.9"/>
<ellipse transform="matrix(0.7067 -0.7075 0.7075 0.7067 3.3649 148.3215)" class="st1" cx="180.6" cy="70.1" rx="65.2" ry="65.3"/>
<path class="st0" d="M69.4,5.9c37.6,0,67.7,31.7,65.1,69.9c-2.2,32.2-28.3,58.2-60.4,60.4c-38.1,2.6-69.9-27.5-69.9-65.1
	C4.1,35.1,33.3,5.9,69.4,5.9"/>
<ellipse transform="matrix(0.7071 -0.7071 0.7071 0.7071 -29.9547 69.8801)" class="st1" cx="69.4" cy="71.1" rx="65.2" ry="65.3"/>
<g>
	<path class="st3" d="M69.6,116.7c-0.1-0.3-0.4-0.5-0.6-0.7c-8.8-8.8-17.6-17.7-26.5-26.5c-0.5-0.5-0.6-0.8,0-1.4c3.1-3,6.1-6,9.1-9
		c0.5-0.5,0.7-0.4,1.2,0c5.5,5.5,11,11,16.4,16.5c0.6,0.6,0.8,0.3,1.2-0.1c5.4-5.4,10.9-10.8,16.3-16.3c0.6-0.6,0.9-0.6,1.5,0
		c2.9,3,5.9,6,8.9,8.9c0.6,0.6,0.5,0.9,0,1.4c-8.8,8.8-17.6,17.5-26.3,26.3c-0.2,0.2-0.6,0.4-0.7,0.8
		C69.8,116.7,69.7,116.7,69.6,116.7z"/>
	<path class="st3" d="M70,26c0.1,0.4,0.4,0.6,0.7,0.8c8.8,8.8,17.6,17.6,26.4,26.3c0.6,0.6,0.6,0.8,0,1.4c-3,3-6,6-9,9
		c-0.5,0.5-0.7,0.5-1.2,0C81.4,58.2,76,52.8,70.6,47.4c-0.9-0.9-0.9-0.9-1.8,0c-5.4,5.4-10.7,10.7-16.1,16.1c-0.5,0.5-0.8,0.5-1.3,0
		c-3-3-5.9-6.1-9-9c-0.6-0.6-0.4-0.9,0.1-1.4c8.8-8.8,17.6-17.6,26.4-26.4c0.2-0.2,0.5-0.4,0.6-0.7C69.7,26,69.8,26,70,26z"/>
	<path class="st3" d="M115.1,71.5c-0.3,0.1-0.5,0.4-0.7,0.6c-2.9,2.9-5.9,5.9-8.8,8.8c-0.5,0.6-0.9,0.5-1.4,0
		c-3-3.1-6.1-6.2-9.2-9.2c-0.3-0.3-0.4-0.4,0-0.8c3.2-3.1,6.3-6.3,9.5-9.4c0.3-0.3,0.5-0.5,0.9-0.1c3.1,3.2,6.3,6.3,9.4,9.5
		c0.1,0.1,0.3,0.3,0.4,0.4C115.1,71.4,115.1,71.5,115.1,71.5z"/>
	<path class="st3" d="M24.4,71.2c0.3-0.1,0.5-0.4,0.7-0.6c3-3,6-6,8.9-9c0.4-0.4,0.6-0.5,1.1,0c3,3.1,6.1,6.1,9.1,9.1
		c0.5,0.5,0.5,0.8,0,1.3c-3.1,3-6.1,6.1-9.1,9.1c-0.4,0.4-0.7,0.4-1.1,0c-3-3-6-6-8.9-9c-0.2-0.2-0.4-0.5-0.7-0.6
		C24.4,71.4,24.4,71.3,24.4,71.2z"/>
	<path class="st4" d="M80,71.4c-0.1,0.1-0.2,0.3-0.4,0.4c-3.1,3.1-6.3,6.3-9.4,9.4c-0.5,0.5-0.7,0.4-1.2,0c-3.2-3.2-6.3-6.4-9.5-9.5
		c-0.3-0.3-0.2-0.5,0-0.7c3.2-3.1,6.3-6.3,9.4-9.5c0.5-0.5,0.8-0.5,1.3,0c3,3.1,6.1,6.1,9.2,9.2C79.8,70.9,80,71.1,80,71.4z"/>
</g>
<g>
	<path class="st3" d="M219.2,68l-8.7,12.2h-5.4l8.7-11.9l-8.4-11.5h5.5"/>
	<g>
		<path class="st3" d="M148.3,103c0-0.1,0.1-0.2,0.1-0.2c14.3-19.5,28.6-39,42.9-58.5c2-2.7,4-5.5,6-8.2c0.1-0.1,0.2-0.2,0.4-0.2
			c5,0,10.1,0,15.1,0c0.1,0,0.1,0,0.3,0c-0.1,0.1-0.1,0.2-0.2,0.3c-4,5.5-8,10.9-12,16.4c-12.3,16.7-24.5,33.5-36.8,50.2
			c-0.1,0.1-0.1,0.2-0.2,0.3C158.7,103,153.5,103,148.3,103z"/>
		<path class="st2" d="M165,35.9c1,1.4,2,2.8,3,4.3c3.6,5.1,7.1,10.3,10.7,15.4c0.1,0.2,0.1,0.3,0,0.4c-2.5,3.2-5,6.4-7.5,9.7
			c0,0.1-0.1,0.1-0.1,0.2c-0.6-0.8-1.2-1.6-1.8-2.4c-6.7-9.1-13.3-18.2-20-27.2c-0.1-0.1-0.1-0.2-0.1-0.2
			C154.5,35.9,159.7,35.9,165,35.9z"/>
		<path class="st2" d="M213.9,103c-0.1,0-0.2,0-0.3,0c-5.1,0-10.1,0-15.2,0c-0.2,0-0.3-0.1-0.4-0.2c-4.7-6.6-9.4-13.3-14.1-19.9
			c-0.1-0.1-0.1-0.2,0-0.4c2.5-3.5,5-7,7.5-10.5c0-0.1,0.1-0.1,0.2-0.2C199.1,82.2,206.5,92.6,213.9,103z"/>
	</g>
	<path class="st3" d="M151.6,56.8h5.5l-8.4,11.5l8.7,11.9H152L143.3,68"/>
</g>
</svg>
