<?xml version="1.0" encoding="utf-8"?>
<!-- Generator: Adobe Illustrator 23.0.1, SVG Export Plug-In . SVG Version: 6.00 Build 0)  -->
<svg version="1.1" id="Layer_1" xmlns="http://www.w3.org/2000/svg" xmlns:xlink="http://www.w3.org/1999/xlink" x="0px" y="0px"
	 viewBox="0 0 100 100" style="enable-background:new 0 0 100 100;" xml:space="preserve">
<style type="text/css">
	.st0{fill:#14213D;stroke:#FFFFFF;stroke-width:2;stroke-miterlimit:10;}
	.st1{fill:#4EA8DE;}
	.st2{fill:#FFFFFF;}
</style>
<circle class="st0" cx="49.7" cy="50.3" r="45.8"/>
<g>
	<path class="st1" d="M77.9,50l-6.5,9.1h-4.1l6.5-8.9l-6.3-8.6h4.1"/>
	<g>
		<path class="st1" d="M25,76.2c0-0.1,0.1-0.1,0.1-0.2c10.7-14.6,21.4-29.1,32-43.7c1.5-2,3-4.1,4.5-6.1c0.1-0.1,0.1-0.1,0.3-0.1
			c3.8,0,7.5,0,11.3,0c0,0,0.1,0,0.2,0c-0.1,0.1-0.1,0.1-0.1,0.2c-3,4.1-6,8.2-9,12.3C55.1,51,45.9,63.5,36.8,76
			c0,0.1-0.1,0.1-0.2,0.2C32.7,76.2,28.9,76.2,25,76.2z"/>
		<path class="st2" d="M37.4,26c0.7,1.1,1.5,2.1,2.2,3.2c2.7,3.8,5.3,7.7,8,11.5c0.1,0.1,0.1,0.2,0,0.3c-1.9,2.4-3.7,4.8-5.6,7.2
			c0,0-0.1,0.1-0.1,0.1c-0.4-0.6-0.9-1.2-1.3-1.8c-5-6.8-9.9-13.6-14.9-20.3c0-0.1-0.1-0.1-0.1-0.2C29.6,26,33.5,26,37.4,26z"/>
		<path class="st2" d="M74,76.1c-0.1,0-0.1,0-0.2,0c-3.8,0-7.6,0-11.4,0c-0.1,0-0.2,0-0.3-0.1c-3.5-5-7-9.9-10.5-14.9
			c-0.1-0.1-0.1-0.2,0-0.3c1.9-2.6,3.8-5.2,5.6-7.9c0,0,0.1-0.1,0.1-0.1C62.9,60.6,68.4,68.4,74,76.1z"/>
	</g>
	<path class="st1" d="M27.4,41.6h4.1l-6.3,8.6l6.5,8.9h-4.1l-6.5-9.1"/>
</g>
</svg>
