<svg xmlns="http://www.w3.org/2000/svg" xmlns:xlink="http://www.w3.org/1999/xlink" width="235" zoomAndPan="magnify" viewBox="0 0 176.25 37.5" height="50" preserveAspectRatio="xMidYMid meet" version="1.0"><defs><g/></defs><g fill="#4ea8de" fill-opacity="1"><g transform="translate(12.660565, 24.061591)"><g><path d="M 8.171875 0 L 5.40625 -4.84375 L 3.5 -4.84375 L 3.5 0 L 1.25 0 L 1.25 -11.9375 L 6.34375 -11.9375 C 7.644531 -11.9375 8.675781 -11.628906 9.4375 -11.015625 C 10.207031 -10.410156 10.59375 -9.59375 10.59375 -8.5625 C 10.59375 -6.863281 9.679688 -5.691406 7.859375 -5.046875 L 10.734375 0 Z M 3.5 -9.953125 L 3.5 -6.8125 L 6.34375 -6.8125 C 7.675781 -6.8125 8.34375 -7.332031 8.34375 -8.375 C 8.34375 -9.425781 7.675781 -9.953125 6.34375 -9.953125 Z M 3.5 -9.953125 "/></g></g></g><g fill="#4ea8de" fill-opacity="1"><g transform="translate(24.031511, 24.061591)"><g><path d="M 9.171875 -3.71875 L 2.65625 -3.71875 C 2.726562 -3.070312 2.972656 -2.554688 3.390625 -2.171875 C 3.804688 -1.796875 4.335938 -1.609375 4.984375 -1.609375 C 6.023438 -1.609375 6.800781 -2.125 7.3125 -3.15625 L 8.921875 -2.234375 C 8.117188 -0.585938 6.789062 0.234375 4.9375 0.234375 C 3.738281 0.234375 2.710938 -0.179688 1.859375 -1.015625 C 1.015625 -1.847656 0.59375 -2.921875 0.59375 -4.234375 C 0.59375 -5.546875 1.019531 -6.613281 1.875 -7.4375 C 2.738281 -8.269531 3.796875 -8.6875 5.046875 -8.6875 C 6.253906 -8.6875 7.242188 -8.289062 8.015625 -7.5 C 8.785156 -6.71875 9.171875 -5.707031 9.171875 -4.46875 Z M 4.984375 -7.0625 C 4.421875 -7.0625 3.929688 -6.890625 3.515625 -6.546875 C 3.097656 -6.210938 2.8125 -5.789062 2.65625 -5.28125 L 7.1875 -5.28125 C 7.09375 -5.84375 6.847656 -6.28125 6.453125 -6.59375 C 6.066406 -6.90625 5.578125 -7.0625 4.984375 -7.0625 Z M 4.984375 -7.0625 "/></g></g></g><g fill="#4ea8de" fill-opacity="1"><g transform="translate(33.834052, 24.061591)"><g><path d="M 0.328125 -6.71875 L 0.328125 -8.453125 L 1.546875 -8.453125 L 1.546875 -9.65625 C 1.546875 -10.664062 1.820312 -11.4375 2.375 -11.96875 C 2.925781 -12.507812 3.648438 -12.78125 4.546875 -12.78125 C 4.929688 -12.78125 5.289062 -12.71875 5.625 -12.59375 L 5.25 -10.703125 C 5.039062 -10.773438 4.84375 -10.8125 4.65625 -10.8125 C 4.019531 -10.8125 3.703125 -10.441406 3.703125 -9.703125 L 3.703125 -8.453125 L 5.546875 -8.453125 L 5.546875 -6.71875 L 3.703125 -6.71875 L 3.703125 0 L 1.546875 0 L 1.546875 -6.71875 Z M 0.328125 -6.71875 "/></g></g></g><g fill="#4ea8de" fill-opacity="1"><g transform="translate(39.664433, 24.061591)"><g><path d="M 1.078125 0 L 1.078125 -11.9375 L 3.21875 -11.9375 L 3.21875 0 Z M 1.078125 0 "/></g></g></g><g fill="#4ea8de" fill-opacity="1"><g transform="translate(43.960502, 24.061591)"><g><path d="M 9.171875 -3.71875 L 2.65625 -3.71875 C 2.726562 -3.070312 2.972656 -2.554688 3.390625 -2.171875 C 3.804688 -1.796875 4.335938 -1.609375 4.984375 -1.609375 C 6.023438 -1.609375 6.800781 -2.125 7.3125 -3.15625 L 8.921875 -2.234375 C 8.117188 -0.585938 6.789062 0.234375 4.9375 0.234375 C 3.738281 0.234375 2.710938 -0.179688 1.859375 -1.015625 C 1.015625 -1.847656 0.59375 -2.921875 0.59375 -4.234375 C 0.59375 -5.546875 1.019531 -6.613281 1.875 -7.4375 C 2.738281 -8.269531 3.796875 -8.6875 5.046875 -8.6875 C 6.253906 -8.6875 7.242188 -8.289062 8.015625 -7.5 C 8.785156 -6.71875 9.171875 -5.707031 9.171875 -4.46875 Z M 4.984375 -7.0625 C 4.421875 -7.0625 3.929688 -6.890625 3.515625 -6.546875 C 3.097656 -6.210938 2.8125 -5.789062 2.65625 -5.28125 L 7.1875 -5.28125 C 7.09375 -5.84375 6.847656 -6.28125 6.453125 -6.59375 C 6.066406 -6.90625 5.578125 -7.0625 4.984375 -7.0625 Z M 4.984375 -7.0625 "/></g></g></g><g fill="#4ea8de" fill-opacity="1"><g transform="translate(53.763043, 24.061591)"><g><path d="M 7.265625 -3.328125 L 9 -2.203125 C 8.175781 -0.578125 6.859375 0.234375 5.046875 0.234375 C 3.773438 0.234375 2.710938 -0.175781 1.859375 -1 C 1.015625 -1.820312 0.59375 -2.898438 0.59375 -4.234375 C 0.59375 -5.546875 1.023438 -6.613281 1.890625 -7.4375 C 2.753906 -8.269531 3.804688 -8.6875 5.046875 -8.6875 C 5.972656 -8.6875 6.773438 -8.484375 7.453125 -8.078125 C 8.128906 -7.679688 8.617188 -7.117188 8.921875 -6.390625 L 7.15625 -5.234375 C 6.71875 -6.203125 6.007812 -6.6875 5.03125 -6.6875 C 4.382812 -6.6875 3.847656 -6.457031 3.421875 -6 C 2.992188 -5.550781 2.78125 -4.960938 2.78125 -4.234375 C 2.78125 -3.484375 2.988281 -2.882812 3.40625 -2.4375 C 3.832031 -1.988281 4.375 -1.765625 5.03125 -1.765625 C 5.570312 -1.765625 6.015625 -1.894531 6.359375 -2.15625 C 6.710938 -2.414062 7.015625 -2.804688 7.265625 -3.328125 Z M 7.265625 -3.328125 "/></g></g></g><g fill="#4ea8de" fill-opacity="1"><g transform="translate(63.309864, 24.061591)"><g><path d="M 0.40625 -6.71875 L 0.40625 -8.453125 L 1.71875 -8.453125 L 1.71875 -10.734375 L 3.875 -10.734375 L 3.875 -8.453125 L 5.703125 -8.453125 L 5.703125 -6.71875 L 3.875 -6.71875 L 3.875 -2.859375 C 3.875 -2.066406 4.226562 -1.671875 4.9375 -1.671875 C 5.1875 -1.671875 5.425781 -1.703125 5.65625 -1.765625 L 5.859375 0 C 5.429688 0.15625 4.957031 0.234375 4.4375 0.234375 C 2.625 0.234375 1.71875 -0.660156 1.71875 -2.453125 L 1.71875 -6.71875 Z M 0.40625 -6.71875 "/></g></g></g><g fill="#fefefe" fill-opacity="1"><g transform="translate(69.683815, 24.061591)"><g/></g></g><g fill="#fefefe" fill-opacity="1"><g transform="translate(74.389035, 24.061591)"><g><path d="M 1.25 0 L 1.25 -11.9375 L 4.84375 -11.9375 C 6.78125 -11.9375 8.347656 -11.421875 9.546875 -10.390625 C 10.742188 -9.367188 11.34375 -7.890625 11.34375 -5.953125 C 11.34375 -4.023438 10.742188 -2.550781 9.546875 -1.53125 C 8.347656 -0.507812 6.78125 0 4.84375 0 Z M 5 -2.078125 C 6.25 -2.078125 7.234375 -2.410156 7.953125 -3.078125 C 8.679688 -3.742188 9.046875 -4.707031 9.046875 -5.96875 C 9.046875 -7.226562 8.679688 -8.191406 7.953125 -8.859375 C 7.234375 -9.523438 6.25 -9.859375 5 -9.859375 L 3.5 -9.859375 L 3.5 -2.078125 Z M 5 -2.078125 "/></g></g></g><g fill="#fefefe" fill-opacity="1"><g transform="translate(86.510088, 24.061591)"><g><path d="M 9 0 L 6.8125 0 C 6.539062 -0.34375 6.40625 -0.789062 6.40625 -1.34375 C 5.8125 -0.289062 4.867188 0.234375 3.578125 0.234375 C 2.734375 0.234375 2.046875 -0.00390625 1.515625 -0.484375 C 0.992188 -0.960938 0.734375 -1.601562 0.734375 -2.40625 C 0.734375 -3.207031 1.015625 -3.835938 1.578125 -4.296875 C 2.140625 -4.765625 2.863281 -5.066406 3.75 -5.203125 L 6.296875 -5.59375 L 6.296875 -5.921875 C 6.296875 -6.765625 5.773438 -7.1875 4.734375 -7.1875 C 4.253906 -7.1875 3.878906 -7.09375 3.609375 -6.90625 C 3.347656 -6.726562 3.21875 -6.503906 3.21875 -6.234375 C 3.21875 -6.171875 3.226562 -6.101562 3.25 -6.03125 L 1.328125 -5.390625 C 1.222656 -5.617188 1.171875 -5.859375 1.171875 -6.109375 C 1.171875 -6.796875 1.492188 -7.394531 2.140625 -7.90625 C 2.796875 -8.425781 3.660156 -8.6875 4.734375 -8.6875 C 5.941406 -8.6875 6.859375 -8.429688 7.484375 -7.921875 C 8.117188 -7.410156 8.4375 -6.644531 8.4375 -5.625 L 8.4375 -2.09375 C 8.4375 -1.238281 8.625 -0.539062 9 0 Z M 4.09375 -1.5 C 4.738281 -1.5 5.265625 -1.710938 5.671875 -2.140625 C 6.085938 -2.566406 6.296875 -3.171875 6.296875 -3.953125 L 6.296875 -4.109375 L 4.25 -3.765625 C 3.300781 -3.609375 2.828125 -3.191406 2.828125 -2.515625 C 2.828125 -2.191406 2.941406 -1.941406 3.171875 -1.765625 C 3.398438 -1.585938 3.707031 -1.5 4.09375 -1.5 Z M 4.09375 -1.5 "/></g></g></g><g fill="#fefefe" fill-opacity="1"><g transform="translate(96.176244, 24.061591)"><g><path d="M 3.0625 -6.375 C 3.0625 -5.851562 3.726562 -5.457031 5.0625 -5.1875 C 6.050781 -4.976562 6.769531 -4.664062 7.21875 -4.25 C 7.664062 -3.832031 7.890625 -3.273438 7.890625 -2.578125 C 7.890625 -1.753906 7.585938 -1.078125 6.984375 -0.546875 C 6.378906 -0.0234375 5.566406 0.234375 4.546875 0.234375 C 3.566406 0.234375 2.753906 0 2.109375 -0.46875 C 1.472656 -0.945312 1 -1.554688 0.6875 -2.296875 L 2.40625 -3.390625 C 2.59375 -2.835938 2.867188 -2.394531 3.234375 -2.0625 C 3.609375 -1.726562 4.054688 -1.5625 4.578125 -1.5625 C 4.929688 -1.5625 5.242188 -1.644531 5.515625 -1.8125 C 5.785156 -1.976562 5.921875 -2.207031 5.921875 -2.5 C 5.921875 -2.78125 5.773438 -3 5.484375 -3.15625 C 5.203125 -3.320312 4.742188 -3.46875 4.109375 -3.59375 C 2.140625 -3.976562 1.15625 -4.859375 1.15625 -6.234375 C 1.15625 -6.992188 1.460938 -7.59375 2.078125 -8.03125 C 2.691406 -8.46875 3.4375 -8.6875 4.3125 -8.6875 C 5.207031 -8.6875 5.925781 -8.515625 6.46875 -8.171875 C 7.007812 -7.835938 7.457031 -7.300781 7.8125 -6.5625 L 6.25 -5.640625 C 5.863281 -6.628906 5.226562 -7.125 4.34375 -7.125 C 3.488281 -7.125 3.0625 -6.875 3.0625 -6.375 Z M 3.0625 -6.375 "/></g></g></g><g fill="#fefefe" fill-opacity="1"><g transform="translate(104.700192, 24.061591)"><g><path d="M 9.15625 -5.703125 L 9.15625 0 L 7 0 L 7 -4.875 C 7 -5.445312 6.851562 -5.890625 6.5625 -6.203125 C 6.28125 -6.523438 5.859375 -6.6875 5.296875 -6.6875 C 4.691406 -6.6875 4.191406 -6.460938 3.796875 -6.015625 C 3.410156 -5.578125 3.21875 -5.003906 3.21875 -4.296875 L 3.21875 0 L 1.078125 0 L 1.078125 -11.9375 L 3.21875 -11.9375 L 3.21875 -7.125 C 3.894531 -8.164062 4.875 -8.6875 6.15625 -8.6875 C 7.070312 -8.6875 7.800781 -8.414062 8.34375 -7.875 C 8.882812 -7.34375 9.15625 -6.617188 9.15625 -5.703125 Z M 9.15625 -5.703125 "/></g></g></g><g fill="#fefefe" fill-opacity="1"><g transform="translate(114.928931, 24.061591)"><g><path d="M 1.078125 0 L 1.078125 -11.9375 L 3.21875 -11.9375 L 3.21875 -7.421875 C 3.894531 -8.265625 4.820312 -8.6875 6 -8.6875 C 7.164062 -8.6875 8.128906 -8.285156 8.890625 -7.484375 C 9.660156 -6.691406 10.046875 -5.609375 10.046875 -4.234375 C 10.046875 -2.867188 9.648438 -1.78125 8.859375 -0.96875 C 8.078125 -0.164062 7.113281 0.234375 5.96875 0.234375 C 4.757812 0.234375 3.84375 -0.191406 3.21875 -1.046875 L 3.21875 0 Z M 3.75 -2.453125 C 4.207031 -1.992188 4.78125 -1.765625 5.46875 -1.765625 C 6.164062 -1.765625 6.738281 -1.992188 7.1875 -2.453125 C 7.632812 -2.921875 7.859375 -3.507812 7.859375 -4.21875 C 7.859375 -4.9375 7.632812 -5.523438 7.1875 -5.984375 C 6.738281 -6.453125 6.164062 -6.6875 5.46875 -6.6875 C 4.78125 -6.6875 4.207031 -6.453125 3.75 -5.984375 C 3.300781 -5.523438 3.078125 -4.9375 3.078125 -4.21875 C 3.078125 -3.507812 3.300781 -2.921875 3.75 -2.453125 Z M 3.75 -2.453125 "/></g></g></g><g fill="#fefefe" fill-opacity="1"><g transform="translate(125.566817, 24.061591)"><g><path d="M 8.46875 -7.5 C 9.382812 -6.71875 9.84375 -5.625 9.84375 -4.21875 C 9.84375 -2.820312 9.382812 -1.726562 8.46875 -0.9375 C 7.550781 -0.15625 6.46875 0.234375 5.21875 0.234375 C 3.96875 0.234375 2.882812 -0.15625 1.96875 -0.9375 C 1.050781 -1.726562 0.59375 -2.820312 0.59375 -4.21875 C 0.59375 -5.625 1.050781 -6.71875 1.96875 -7.5 C 2.882812 -8.289062 3.96875 -8.6875 5.21875 -8.6875 C 6.46875 -8.6875 7.550781 -8.289062 8.46875 -7.5 Z M 3.5 -2.4375 C 3.988281 -1.988281 4.5625 -1.765625 5.21875 -1.765625 C 5.875 -1.765625 6.441406 -1.988281 6.921875 -2.4375 C 7.410156 -2.894531 7.65625 -3.488281 7.65625 -4.21875 C 7.65625 -4.957031 7.410156 -5.550781 6.921875 -6 C 6.441406 -6.457031 5.875 -6.6875 5.21875 -6.6875 C 4.5625 -6.6875 3.988281 -6.457031 3.5 -6 C 3.019531 -5.550781 2.78125 -4.957031 2.78125 -4.21875 C 2.78125 -3.488281 3.019531 -2.894531 3.5 -2.4375 Z M 3.5 -2.4375 "/></g></g></g><g fill="#fefefe" fill-opacity="1"><g transform="translate(136.000126, 24.061591)"><g><path d="M 9 0 L 6.8125 0 C 6.539062 -0.34375 6.40625 -0.789062 6.40625 -1.34375 C 5.8125 -0.289062 4.867188 0.234375 3.578125 0.234375 C 2.734375 0.234375 2.046875 -0.00390625 1.515625 -0.484375 C 0.992188 -0.960938 0.734375 -1.601562 0.734375 -2.40625 C 0.734375 -3.207031 1.015625 -3.835938 1.578125 -4.296875 C 2.140625 -4.765625 2.863281 -5.066406 3.75 -5.203125 L 6.296875 -5.59375 L 6.296875 -5.921875 C 6.296875 -6.765625 5.773438 -7.1875 4.734375 -7.1875 C 4.253906 -7.1875 3.878906 -7.09375 3.609375 -6.90625 C 3.347656 -6.726562 3.21875 -6.503906 3.21875 -6.234375 C 3.21875 -6.171875 3.226562 -6.101562 3.25 -6.03125 L 1.328125 -5.390625 C 1.222656 -5.617188 1.171875 -5.859375 1.171875 -6.109375 C 1.171875 -6.796875 1.492188 -7.394531 2.140625 -7.90625 C 2.796875 -8.425781 3.660156 -8.6875 4.734375 -8.6875 C 5.941406 -8.6875 6.859375 -8.429688 7.484375 -7.921875 C 8.117188 -7.410156 8.4375 -6.644531 8.4375 -5.625 L 8.4375 -2.09375 C 8.4375 -1.238281 8.625 -0.539062 9 0 Z M 4.09375 -1.5 C 4.738281 -1.5 5.265625 -1.710938 5.671875 -2.140625 C 6.085938 -2.566406 6.296875 -3.171875 6.296875 -3.953125 L 6.296875 -4.109375 L 4.25 -3.765625 C 3.300781 -3.609375 2.828125 -3.191406 2.828125 -2.515625 C 2.828125 -2.191406 2.941406 -1.941406 3.171875 -1.765625 C 3.398438 -1.585938 3.707031 -1.5 4.09375 -1.5 Z M 4.09375 -1.5 "/></g></g></g><g fill="#fefefe" fill-opacity="1"><g transform="translate(145.666286, 24.061591)"><g><path d="M 6.3125 -8.59375 L 5.96875 -6.5625 C 5.75 -6.644531 5.515625 -6.6875 5.265625 -6.6875 C 4.640625 -6.6875 4.140625 -6.445312 3.765625 -5.96875 C 3.398438 -5.5 3.21875 -4.898438 3.21875 -4.171875 L 3.21875 0 L 1.078125 0 L 1.078125 -8.453125 L 3.21875 -8.453125 L 3.21875 -7.109375 C 3.738281 -8.160156 4.523438 -8.6875 5.578125 -8.6875 C 5.835938 -8.6875 6.082031 -8.65625 6.3125 -8.59375 Z M 6.3125 -8.59375 "/></g></g></g><g fill="#fefefe" fill-opacity="1"><g transform="translate(152.212677, 24.061591)"><g><path d="M 9.5625 -11.9375 L 9.5625 0 L 7.421875 0 L 7.421875 -1.1875 C 7.179688 -0.769531 6.828125 -0.425781 6.359375 -0.15625 C 5.898438 0.101562 5.363281 0.234375 4.75 0.234375 C 3.5625 0.234375 2.570312 -0.164062 1.78125 -0.96875 C 0.988281 -1.78125 0.59375 -2.867188 0.59375 -4.234375 C 0.59375 -5.566406 1.007812 -6.640625 1.84375 -7.453125 C 2.6875 -8.273438 3.65625 -8.6875 4.75 -8.6875 C 6 -8.6875 6.890625 -8.265625 7.421875 -7.421875 L 7.421875 -11.9375 Z M 3.453125 -2.453125 C 3.910156 -1.992188 4.476562 -1.765625 5.15625 -1.765625 C 5.84375 -1.765625 6.410156 -1.992188 6.859375 -2.453125 C 7.316406 -2.921875 7.546875 -3.507812 7.546875 -4.21875 C 7.546875 -4.9375 7.316406 -5.523438 6.859375 -5.984375 C 6.410156 -6.453125 5.84375 -6.6875 5.15625 -6.6875 C 4.476562 -6.6875 3.910156 -6.453125 3.453125 -5.984375 C 3.003906 -5.523438 2.78125 -4.9375 2.78125 -4.21875 C 2.78125 -3.507812 3.003906 -2.921875 3.453125 -2.453125 Z M 3.453125 -2.453125 "/></g></g></g></svg>