<?xml version="1.0" encoding="utf-8"?>
<!-- Generator: Adobe Illustrator 23.0.1, SVG Export Plug-In . SVG Version: 6.00 Build 0)  -->
<svg version="1.1" id="Layer_1" xmlns="http://www.w3.org/2000/svg" xmlns:xlink="http://www.w3.org/1999/xlink" x="0px" y="0px"
	 viewBox="0 0 200 31" style="enable-background:new 0 0 200 31;" xml:space="preserve">
<style type="text/css">
	.st0{fill:#FFFFFF;}
	.st1{fill:#4EA8DE;}
</style>
<g>
	<path class="st0" d="M83,1.9v3.3c-0.2-0.1-0.7-0.2-1.6-0.2c-1.3,0-3,0.6-3,3.2v3h12.5V30h-3.6V14.5h-8.8V30h-3.8V14.5h-3.5v-3.3
		h3.5V8c0-4.2,2.8-6.5,6.2-6.5C82,1.5,82.8,1.8,83,1.9z M89,1.3c1.5,0,2.7,1.2,2.7,2.7c0,1.5-1.2,2.6-2.7,2.6
		c-1.5,0-2.6-1.2-2.6-2.6C86.4,2.4,87.6,1.3,89,1.3z"/>
	<path class="st0" d="M97.1,30h-3.7V11.1H97v2.7c1.4-2.4,3.6-3.3,5.8-3.3c4.5,0,6.8,3.3,6.8,7.5v12h-3.7V18.7c0-2.6-1.1-4.7-4.4-4.7
		c-2.9,0-4.4,2.3-4.4,5.2V30z"/>
	<path class="st0" d="M117.7,19.2l5.1-0.7c1.1-0.2,1.5-0.7,1.5-1.4c0-1.8-1.2-3.4-4.1-3.4c-2.6,0-4,1.6-4.3,3.8l-3.5-0.8
		c0.4-3.6,3.7-6.1,7.7-6.1c5.7,0,7.8,3.2,7.8,6.9v9.5c0,1.6,0.2,2.6,0.2,3.1h-3.6c-0.1-0.5-0.2-1.2-0.2-2.6
		c-0.8,1.3-2.7,3.1-6.1,3.1c-3.8,0-6.3-2.7-6.3-5.7C111.9,21.6,114.4,19.7,117.7,19.2z M124.2,21.9v-0.9l-5.8,0.9
		c-1.6,0.2-2.7,1.1-2.7,2.8c0,1.4,1.2,2.7,3.1,2.7C121.8,27.5,124.2,26.1,124.2,21.9z"/>
	<path class="st0" d="M134.6,30h-3.7V11.1h3.6v2.7c1.4-2.4,3.6-3.3,5.8-3.3c4.5,0,6.8,3.3,6.8,7.5v12h-3.7V18.7
		c0-2.6-1.1-4.7-4.4-4.7c-2.9,0-4.4,2.3-4.4,5.2V30z"/>
	<path class="st0" d="M152.4,20.6c0,4.3,2.7,6.6,5.8,6.6c3.5,0,4.8-2.4,5.3-3.9l3.3,1.4c-0.9,2.7-3.6,5.9-8.5,5.9
		c-5.5,0-9.5-4.3-9.5-10c0-5.9,4.1-10,9.5-10c5,0,7.6,3.1,8.4,6l-3.3,1.4c-0.5-1.8-1.8-4-5.1-4C155.1,14,152.4,16.2,152.4,20.6z"/>
	<path class="st0" d="M186.5,24.6c-1.1,3.3-4.1,6-8.5,6c-5.1,0-9.5-3.7-9.5-10.1c0-5.9,4.3-10,9-10c5.8,0,9.1,4,9.1,9.9
		c0,0.5,0,0.9-0.1,1.2h-14.2c0.1,3.4,2.5,5.7,5.7,5.7c3.1,0,4.6-1.7,5.3-3.8L186.5,24.6z M182.7,18.6c-0.1-2.7-1.8-4.8-5.2-4.8
		c-3.1,0-5,2.4-5.1,4.8H182.7z"/>
</g>
<g>
	<path class="st0" d="M28.3,27.1c-0.9,1.8-2.9,3.3-5.8,3.3c-5.5,0-8.9-4.4-8.9-9.9c0-5.3,3.6-9.8,8.9-9.8c3.3,0,5.1,1.6,5.7,3.1V1.8
		h3.6v24.7c0,1.8,0.2,3.1,0.2,3.5h-3.5c-0.1-0.4-0.2-1.4-0.2-2.5V27.1z M22.9,27.3c3.3,0,5.4-2.9,5.4-6.8s-2-6.5-5.4-6.5
		s-5.5,2.7-5.5,6.6S19.4,27.3,22.9,27.3z"/>
	<path class="st0" d="M52.1,24.7c-1,3.3-4,5.9-8.4,5.9c-5,0-9.4-3.7-9.4-10c0-5.9,4.2-9.9,8.9-9.9c5.8,0,9,4,9,9.8
		c0,0.5,0,0.9-0.1,1.2H38.1c0.1,3.3,2.5,5.7,5.6,5.7c3,0,4.5-1.7,5.2-3.8L52.1,24.7z M48.4,18.7c-0.1-2.7-1.8-4.8-5.1-4.8
		c-3.1,0-4.9,2.4-5.1,4.8H48.4z"/>
	<polyline class="st1" points="56,30 69.7,11.3 65.4,11.3 51.6,30 	"/>
	<polyline class="st1" points="65.4,11.3 51.7,30 56,30 69.7,11.3 	"/>
	<polyline class="st0" points="60.2,16.8 56.3,11.3 51.9,11.3 58,19.6 	"/>
	<path class="st0" d="M61.6,24.3l4,5.6H70c-1-1.4-4.7-6.7-6.2-8.7"/>
</g>
<path class="st1" d="M199.1,20.4l-7.2,10.1h-4.5l7.2-9.8l-6.9-9.5h4.6"/>
<path class="st1" d="M8.1,11.1h4.6l-6.9,9.5l7.2,9.8H8.4L1.2,20.4"/>
</svg>
