<?xml version="1.0" encoding="utf-8"?>
<!-- Generator: Adobe Illustrator 23.0.1, SVG Export Plug-In . SVG Version: 6.00 Build 0)  -->
<svg version="1.1" id="Layer_1" xmlns="http://www.w3.org/2000/svg" xmlns:xlink="http://www.w3.org/1999/xlink" x="0px" y="0px"
	 viewBox="0 0 35 35" style="enable-background:new 0 0 35 35;" xml:space="preserve">
<style type="text/css">
	.st0{fill:#4EA8DE;}
	.st1{fill:#FFFFFF;}
</style>
<rect x="-0.5" y="-0.3" class="st0" width="35.8" height="35.8"/>
<g>
	<g>
		<path class="st1" d="M17.5,19c2.3,0,4.6,0,6.9,0c0.9,0,1.4,0.4,1.4,1.1c0,0.7-0.5,1.1-1.4,1.1c-4.7,0-9.3,0-14,0
			c-0.9,0-1.5-0.4-1.5-1.2c0-0.7,0.6-1.1,1.5-1.1C12.8,19,15.2,19,17.5,19z"/>
		<path class="st1" d="M14.5,16.4c-1.4,0-2.8,0-4.2,0c-0.8,0-1.3-0.5-1.3-1.2c0-0.6,0.5-1.1,1.3-1.1c2.9,0,5.7,0,8.6,0
			c0.8,0,1.3,0.5,1.3,1.2c0,0.6-0.5,1-1.3,1C17.4,16.4,15.9,16.4,14.5,16.4z"/>
		<path class="st1" d="M13.7,9.5c1.2,0,2.3,0,3.5,0c0.8,0,1.2,0.4,1.2,1.1c0,0.6-0.4,1.1-1.2,1.1c-2.4,0-4.7,0-7.1,0
			c-0.8,0-1.2-0.6-1.2-1.2c0-0.6,0.5-1,1.3-1C11.4,9.5,12.5,9.5,13.7,9.5z"/>
		<path class="st1" d="M25.6,11c0,0.3-0.1,0.6-0.3,0.8c-0.6,0.6-1.2,1.3-1.9,1.9C23,14,22.5,14,22,13.6c-0.6-0.6-1.2-1.2-1.7-1.8
			c-0.5-0.5-0.4-1.1,0-1.6c0.5-0.5,1.1-0.4,1.6,0c0.3,0.3,0.5,0.8,0.9,0.8c0.4,0,0.6-0.5,0.9-0.8c0.4-0.3,0.8-0.4,1.3-0.2
			C25.4,10.2,25.6,10.6,25.6,11z"/>
	</g>
	<g>
		<path class="st1" d="M12.1,27.2v-2.3l-0.9,2.3h-0.6l-0.9-2.2v2.2H9v-3.4h1l0.9,2.3l0.9-2.3h1.1v3.4H12.1z"/>
		<path class="st1" d="M14.6,27.2v-3.4h2.2v0.7h-1.4v0.7h1.3v0.7h-1.3v0.7h1.4v0.7H14.6z"/>
		<path class="st1" d="M20.6,27.2l-1.4-2.3v2.3h-0.8v-3.4h0.9l1.3,2.1v-2.1h0.8v3.4H20.6z"/>
		<path class="st1" d="M23.1,25.9v-2.2h0.8v2.1c0,0.4,0.2,0.6,0.6,0.6s0.6-0.2,0.6-0.6v-2.1h0.8v2.2c0,0.9-0.6,1.3-1.4,1.3
			S23.1,26.8,23.1,25.9z"/>
	</g>
</g>
</svg>
