<?xml version="1.0" encoding="utf-8"?>
<!-- Generator: Adobe Illustrator 23.0.1, SVG Export Plug-In . SVG Version: 6.00 Build 0)  -->
<svg version="1.1" id="Layer_1" xmlns="http://www.w3.org/2000/svg" xmlns:xlink="http://www.w3.org/1999/xlink" x="0px" y="0px"
	 viewBox="0 0 500 365" style="enable-background:new 0 0 500 365;" xml:space="preserve">
<style type="text/css">
	.st0{fill:#FFFFFF;}
	.st1{fill:#14213D;}
	.st2{fill:#434041;}
	.st3{fill:#1E3659;}
	.st4{fill:#3292CC;}
	.st5{fill:#4EA8DE;}
	.st6{fill:#6DC921;}
	.st7{fill:#BBD11E;}
	.st8{fill:#ED0F01;}
	.st9{fill:#FFAD29;}
	.st10{fill:#333333;}
</style>
<path class="st0" d="M250.2,357.2c96.5,0,174.8-78.3,174.8-174.8"/>
<path class="st0" d="M424.9,182.5C424.9,86,346.6,7.7,250.1,7.7C153.5,7.7,75.2,86,75.2,182.5c0,96.5,78.3,174.8,174.8,174.8"/>
<polygon class="st1" points="426,182.5 411,169.1 412.6,183.3 412.6,197.5 "/>
<polygon class="st1" points="395.6,279 390.7,259.5 384.1,272.2 376.2,284 "/>
<polygon class="st1" points="76.2,192.4 92,204.9 89.5,190.9 88.7,176.6 "/>
<path class="st1" d="M415.4,182.5c0-91.3-74-165.4-165.4-165.4S84.7,91.2,84.7,182.5c0,91.3,74,165.4,165.4,165.4
	S415.4,273.9,415.4,182.5"/>
<path class="st2" d="M410.1,182.5c0-88.4-71.7-160.1-160.1-160.1S90,94.1,90,182.5c0,88.4,71.7,160.1,160.1,160.1
	S410.1,270.9,410.1,182.5"/>
<path class="st3" d="M250.1,22.4c17.3,0,33.9,2.7,49.5,7.8l-49.5,152.3V22.4z"/>
<path class="st3" d="M299.5,30.3c16.4,5.3,31.4,13.1,44.7,22.7l-94.1,129.5L299.5,30.3z"/>
<path class="st3" d="M344.1,53c14,10.1,25.8,22.1,35.5,35.4l-129.6,94.1L344.1,53z"/>
<path class="st3" d="M379.6,88.4c10.1,14,17.7,29,22.8,44.6l-152.3,49.5L379.6,88.4z"/>
<path class="st4" d="M402.5,133.2c13.8,40.5,8.7,74.3-0.2,99.4c0,0-0.9-0.5-0.9-0.5l-151.4-49.5c0,0,0,0,0,0L402.3,133
	C402.3,133,402.5,133.2,402.5,133.2z"/>
<path class="st5" d="M250.1,182.5L402.3,232"/>
<path class="st5" d="M402.2,232.1c-5.8,17.4-17.3,49.8-58.2,80.1l-94-129.6L402.2,232.1z"/>
<path class="st3" d="M344.1,312.1c-14,10.1-29,17.7-44.6,22.8l-49.5-152.3L344.1,312.1z"/>
<path class="st3" d="M299.5,334.8c-16.4,5.3-33.1,7.9-49.5,7.9l0-160.1L299.5,334.8z"/>
<path class="st3" d="M250.1,342.6c-17.3,0-33.9-2.7-49.5-7.8l49.5-152.3V342.6z"/>
<path class="st3" d="M200.6,334.8c-16.4-5.3-31.4-13.1-44.7-22.7l94.1-129.5L200.6,334.8z"/>
<path class="st3" d="M156,312c-14-10.1-25.8-22.1-35.5-35.4L250,182.5L156,312z"/>
<path class="st3" d="M122.6,275.2c-10.1-14-17.7-29-22.8-44.6l152.3-49.5L122.6,275.2z"/>
<path class="st3" d="M97.8,232c-5.3-16.4-7.9-33.1-7.9-49.5l160.1,0L97.8,232z"/>
<path class="st3" d="M90,182.5c0-17.3,2.7-33.9,7.8-49.5l152.3,49.5L90,182.5z"/>
<path class="st3" d="M97.8,133.1c5.3-16.4,13.1-31.4,22.7-44.7l129.5,94.1L97.8,133.1z"/>
<path class="st3" d="M120.5,88.4c10.1-14,22.1-25.8,35.4-35.5l94.1,129.6L120.5,88.4z"/>
<path class="st3" d="M156,53c14-10.1,29-17.7,44.6-22.8l49.5,152.3L156,53z"/>
<path class="st3" d="M200.6,30.3c16.4-5.3,33.1-7.9,49.5-7.9l0,160.1L200.6,30.3z"/>
<g>
	<path class="st0" d="M340.2,185.7c0.1,2.4,2,4.4,4.7,4.4c2.5,0,4.5-1.6,4.5-4.2c0-3-2.2-4.4-4.6-4.4c-1.8,0-3.2,0.8-4,1.8
		c-0.5-0.2-4.5-1.6-5-1.7l3.1-13.3h14.6v4.8h-10.9l-1.3,5.7c1.1-1,3-1.6,4.7-1.6c5.2,0,8.9,3.1,8.9,8.7c0,4.8-3.7,9-9.9,9
		c-5.6,0-9.5-3.8-9.9-7.9L340.2,185.7z"/>
	<path class="st0" d="M364.2,167.8c3.6,0,6.7,2.9,6.7,6.5c0,3.7-3.1,6.5-6.7,6.5c-3.6,0-6.6-2.9-6.6-6.5
		C357.6,170.7,360.7,167.8,364.2,167.8z M361.5,194.1l18.3-25.9h4.6l-18.3,25.9H361.5z M364.2,177.1c1.5,0,2.6-1.2,2.6-2.8
		c0-1.6-1.1-2.8-2.6-2.8c-1.5,0-2.6,1.1-2.6,2.8C361.6,176,362.8,177.1,364.2,177.1z M381.7,181.5c3.6,0,6.7,2.9,6.7,6.5
		c0,3.7-3.1,6.5-6.7,6.5c-3.6,0-6.6-2.9-6.6-6.5C375.1,184.4,378.1,181.5,381.7,181.5z M381.7,190.9c1.5,0,2.6-1.2,2.6-2.8
		s-1.1-2.8-2.6-2.8c-1.5,0-2.6,1.1-2.6,2.8C379.1,189.7,380.2,190.9,381.7,190.9z"/>
</g>
<g>
	<path class="st0" d="M318.1,247.1c0.1,2.4,2,4.4,4.7,4.4c2.5,0,4.5-1.6,4.5-4.2c0-3-2.2-4.4-4.6-4.4c-1.8,0-3.2,0.8-4,1.8
		c-0.5-0.2-4.5-1.6-5-1.7l3.1-13.3h14.6v4.8h-10.9l-1.3,5.7c1.1-1,3-1.6,4.7-1.6c5.2,0,8.9,3.1,8.9,8.7c0,4.8-3.7,9-9.9,9
		c-5.6,0-9.5-3.8-9.9-7.9L318.1,247.1z"/>
	<path class="st0" d="M342.2,229.2c3.6,0,6.7,2.9,6.7,6.5c0,3.7-3.1,6.5-6.7,6.5c-3.6,0-6.6-2.9-6.6-6.5
		C335.6,232.1,338.6,229.2,342.2,229.2z M339.5,255.5l18.3-25.9h4.6l-18.3,25.9H339.5z M342.2,238.5c1.5,0,2.6-1.2,2.6-2.8
		c0-1.6-1.1-2.8-2.6-2.8c-1.5,0-2.6,1.1-2.6,2.8C339.6,237.4,340.7,238.5,342.2,238.5z M359.6,242.9c3.6,0,6.7,2.9,6.7,6.5
		c0,3.7-3.1,6.5-6.7,6.5c-3.6,0-6.6-2.9-6.6-6.5C353,245.8,356.1,242.9,359.6,242.9z M359.6,252.3c1.5,0,2.6-1.2,2.6-2.8
		s-1.1-2.8-2.6-2.8c-1.5,0-2.6,1.1-2.6,2.8C357,251.2,358.2,252.3,359.6,252.3z"/>
</g>
<g>
	<path class="st0" d="M150.5,157.7c0.9,0.5,2.8,1.1,4.6,1.1c4.7,0,7.9-2.6,8.2-7.3c-1.1,1.6-3.3,2.8-6,2.8c-4.8,0-8.9-3.4-8.9-8.7
		c0-5.3,4.2-9.1,9.9-9.1c5.6,0,10.3,4,10.3,12.3c0,9.3-4.7,14.8-13.5,14.8c-2.2,0-4.6-0.6-6-1.4L150.5,157.7z M158.1,141.1
		c-2.4,0-4.4,1.7-4.4,4.3c0,2.6,2,4.3,4.4,4.3c2.4,0,4.5-1.7,4.5-4.3S160.6,141.1,158.1,141.1z"/>
	<path class="st0" d="M174.1,140.8c1.7-2.6,4.5-4.4,8.5-4.4c4,0,6.8,1.8,8.5,4.4c1.8,2.7,2.3,5.9,2.3,9.2c0,3.3-0.6,6.5-2.3,9.2
		c-1.7,2.6-4.5,4.4-8.5,4.4c-4,0-6.8-1.8-8.5-4.4c-1.8-2.7-2.3-5.9-2.3-9.2C171.9,146.7,172.4,143.5,174.1,140.8z M178.8,156.6
		c0.8,1.3,2,2.1,3.9,2.1c1.9,0,3.1-0.8,3.9-2.1c1-1.6,1.4-3.9,1.4-6.6c0-2.7-0.4-5-1.4-6.6c-0.8-1.3-2-2.1-3.9-2.1
		c-1.9,0-3.1,0.8-3.9,2.1c-1,1.6-1.4,3.9-1.4,6.6C177.4,152.7,177.8,155,178.8,156.6z"/>
	<path class="st0" d="M202.8,136.6c3.6,0,6.7,2.9,6.7,6.5c0,3.7-3.1,6.5-6.7,6.5c-3.6,0-6.6-2.9-6.6-6.5
		C196.1,139.5,199.2,136.6,202.8,136.6z M200,162.9l18.3-25.9h4.6l-18.3,25.9H200z M202.8,145.9c1.5,0,2.6-1.2,2.6-2.8
		s-1.1-2.8-2.6-2.8c-1.5,0-2.6,1.1-2.6,2.8C200.1,144.8,201.3,145.9,202.8,145.9z M220.2,150.3c3.6,0,6.7,2.9,6.7,6.5
		c0,3.7-3.1,6.5-6.7,6.5c-3.6,0-6.6-2.9-6.6-6.5C213.6,153.2,216.6,150.3,220.2,150.3z M220.2,159.7c1.5,0,2.6-1.2,2.6-2.8
		c0-1.6-1.1-2.8-2.6-2.8c-1.5,0-2.6,1.1-2.6,2.8C217.6,158.6,218.7,159.7,220.2,159.7z"/>
</g>
<g>
	<path class="st4" d="M493.9,189.2c3.2-17.6-8.4-34.4-25.9-37.6c-17.6-3.2-34.4,8.4-37.6,25.9c-3.2,17.6,8.4,34.4,25.9,37.6
		C473.8,218.3,490.7,206.7,493.9,189.2"/>
	<path class="st0" d="M488.4,188.2c2.7-14.5-6.9-28.5-21.5-31.1c-14.5-2.7-28.5,6.9-31.1,21.5s6.9,28.5,21.5,31.1
		S485.8,202.7,488.4,188.2"/>
	<path class="st4" d="M446.8,179.2c-1.2,0-2.4-1.2-2.4-2.4c0-1.2,1.2-2.2,2.4-2.2c1.2,0,2.4,1.2,2.4,2.4S448.3,179.2,446.8,179.2"/>
	<path class="st4" d="M449.3,187.5c0,1.2-1,2.4-2.4,2.4c-1.2,0-2.4-1-2.4-2.4c0-1.2,1-2.4,2.2-2.4
		C448.3,185.3,449.3,186.3,449.3,187.5"/>
	<path class="st4" d="M462.7,172.6c-1,0.2-2-0.5-2.2-1.7c0-1,0.7-2,1.7-2c1,0,2,0.7,2,2C464.4,171.6,463.7,172.3,462.7,172.6"/>
	<path class="st4" d="M452.4,181.6c0.7,0,1,0.5,1,1c0,0.5-0.5,1-1,1c-0.7,0-1-0.5-1-1.2C451.5,182.1,452,181.4,452.4,181.6"/>
	<polyline class="st4" points="465.7,182.6 454.7,198 447.8,198 458.8,182.8 448.3,168.4 455.4,168.4 	"/>
	<path class="st4" d="M467.6,185l-3.2,4.7l5.6,8.6h0.2h6.6C475.2,195.6,469.3,187.2,467.6,185"/>
	<polyline class="st4" points="462.5,178.2 469.3,168.4 476.2,168.4 459.1,192.1 	"/>
	<path class="st4" d="M471.5,181.6c0.7,0,1,0.5,1,1c0,0.5-0.5,1-1,1c-0.7,0-1-0.5-1-1.2C470.3,182.1,470.8,181.4,471.5,181.6"/>
	<path class="st4" d="M462.7,196.8c-1,0.2-2-0.5-2.2-1.7c0-1,0.7-2,1.7-2c1,0,2,0.7,2,2C464.4,195.8,463.7,196.5,462.7,196.8"/>
	<path class="st4" d="M477.4,179.2c-1.2,0-2.4-1.2-2.4-2.4c0-1.2,1.2-2.2,2.4-2.2c1.2,0,2.4,1.2,2.4,2.4S478.6,179.2,477.4,179.2"/>
	<path class="st4" d="M479.9,187.5c0,1.2-1,2.4-2.4,2.4c-1.2,0-2.4-1-2.4-2.4c0-1.2,1-2.4,2.2-2.4
		C478.6,185.3,479.9,186.3,479.9,187.5"/>
	<path class="st5" d="M457.8,302.5c3.2-17.6-8.4-34.4-25.9-37.6c-17.6-3.2-34.4,8.4-37.6,25.9c-3.2,17.6,8.4,34.4,25.9,37.6
		C437.7,331.7,454.5,320.1,457.8,302.5"/>
	<path class="st0" d="M452.3,301.5c2.7-14.5-6.9-28.5-21.5-31.1c-14.5-2.7-28.5,6.9-31.1,21.5s6.9,28.5,21.5,31.1
		S449.6,316,452.3,301.5"/>
	<polyline class="st5" points="443.1,296 439.2,301.5 436.7,301.5 440.6,296.2 436.9,291 439.4,291 	"/>
	<path class="st5" d="M411.1,311.8c0,0,0-0.1,0.1-0.1c6.4-8.8,12.9-17.6,19.3-26.4c0.9-1.2,1.8-2.5,2.7-3.7c0-0.1,0.1-0.1,0.2-0.1
		c2.3,0,4.5,0,6.8,0h0.1c0,0-0.1,0.1-0.1,0.1c-1.8,2.5-3.6,4.9-5.4,7.4c-5.5,7.5-11.1,15.1-16.6,22.6c0,0-0.1,0.1-0.1,0.1H411.1z"/>
	<path class="st5" d="M418.7,281.5c0.4,0.6,0.9,1.3,1.3,1.9c1.6,2.3,3.2,4.6,4.8,6.9c0.1,0.1,0,0.1,0,0.2c-1.1,1.5-2.3,2.9-3.4,4.4
		c0,0,0,0-0.1,0.1c-0.3-0.4-0.5-0.7-0.8-1.1c-3-4.1-6-8.2-9-12.3c0,0,0-0.1-0.1-0.1H418.7z"/>
	<path class="st5" d="M440.7,311.8h-0.1c-2.3,0-4.6,0-6.9,0c-0.1,0-0.1,0-0.2-0.1c-2.1-3-4.2-6-6.4-9c0-0.1-0.1-0.1,0-0.2
		c1.1-1.6,2.3-3.2,3.4-4.7c0,0,0,0,0.1-0.1C434,302.4,437.4,307.1,440.7,311.8"/>
	<polyline class="st5" points="412.6,291 415.1,291 411.3,296.1 415.2,301.5 412.8,301.5 408.9,296 	"/>
	<path class="st3" d="M69.8,198.1c3.2-17.6-8.4-34.4-25.9-37.6c-17.6-3.2-34.4,8.4-37.6,25.9C3,204,14.6,220.8,32.2,224.1
		C49.7,227.3,66.6,215.7,69.8,198.1"/>
	<path class="st0" d="M64.3,197.1c2.7-14.5-6.9-28.5-21.5-31.1c-14.5-2.7-28.5,6.9-31.1,21.5C9,202,18.6,215.9,33.2,218.6
		S61.6,211.6,64.3,197.1"/>
	<path class="st3" d="M50.9,186.6c-0.3-1.5-1.5-3.8-4.9-3.8c-2.5,0-4.2,1.6-4.2,3.4c0,1.5,1,2.6,2.9,3l3.7,0.7
		c4.9,1,7.5,4.1,7.5,7.9c0,4.1-3.4,8.3-9.7,8.3c-7.1,0-9-5.2-10.1-8.7l3.3-0.9c0.1,1.2,3,5,6.8,5c2.8,0,4.3-1.4,4.3-3.3
		c0-1.5-1.2-2.8-3.2-3.2l-3.7-0.8c-4.3-0.8-7-3.6-7-7.7c0-4.8,4.3-8.4,9.3-8.4c6.5,0,9,3.9,9.6,7L50.9,186.6z"/>
	<polyline class="st3" points="36.4,191.9 26.4,206.1 20,206.1 30.1,192.3 20.4,179 26.8,179 	"/>
	<path class="st3" d="M38.2,194.1l-2.8,4.3l5.2,7.8h0.3H47C45.2,203.7,39.8,196.2,38.2,194.1"/>
	<rect x="44.8" y="205" class="st3" width="3.4" height="3.3"/>
	<rect x="44.9" y="176.5" class="st3" width="3.4" height="3.3"/>
</g>
</svg>
