<?xml version="1.0" encoding="utf-8"?>
<!-- Generator: Adobe Illustrator 23.0.1, SVG Export Plug-In . SVG Version: 6.00 Build 0)  -->
<svg version="1.1" id="Layer_1" xmlns="http://www.w3.org/2000/svg" xmlns:xlink="http://www.w3.org/1999/xlink" x="0px" y="0px"
	 viewBox="0 0 105 60" style="enable-background:new 0 0 105 60;" xml:space="preserve">
<style type="text/css">
	.st0{fill:#6DC921;}
	.st1{fill:#BBD11E;}
	.st2{fill:#ED0F01;}
	.st3{fill:#FFAD29;}
	.st4{fill:#333333;}
	.st5{fill:#FFFFFF;}
</style>
<g>
	<g>
		<path class="st0" d="M18.1,20.2l13.7,13.7c-5.4,5.4-8.7,12.8-8.7,21H3.8c0-6.6,1.3-13,3.9-19.1C10.1,29.9,13.6,24.7,18.1,20.2"/>
		<path class="st1" d="M52.8,25.1c-8.2,0-15.6,3.3-21,8.7L18.1,20.2c4.5-4.5,9.8-8,15.6-10.5c6.1-2.6,12.5-3.9,19.1-3.9V25.1z"/>
		<path class="st2" d="M87.6,20.2c4.5,4.5,8,9.8,10.5,15.6c2.6,6.1,3.9,12.5,3.9,19.1H82.6c0-8.2-3.3-15.6-8.7-21L87.6,20.2z"/>
		<path class="st3" d="M73.9,33.9c-5.4-5.4-12.8-8.7-21-8.7V5.8c6.6,0,13,1.3,19.1,3.9c5.8,2.5,11.1,6,15.6,10.5L73.9,33.9z"/>
		<path class="st4" d="M59.1,53.7c2.5,0.7,5-0.8,5.7-3.3c0.7-2.5-0.8-5-3.3-5.7c-2.5-0.7-36.2-4.7-36.2-4.7S56.6,53.1,59.1,53.7"/>
	</g>
	<g>
		<path class="st5" d="M6.1,52.7v-4.5h0.8V52h2.1v0.7H6.1z"/>
		<path class="st5" d="M11.4,48.1c1.2,0,2.3,0.9,2.3,2.3c0,1.5-1.1,2.4-2.3,2.4c-1.2,0-2.3-0.9-2.3-2.4C9.1,49,10.2,48.1,11.4,48.1z
			 M11.4,52.1c0.8,0,1.5-0.5,1.5-1.6s-0.8-1.6-1.5-1.6c-0.8,0-1.5,0.5-1.5,1.6S10.6,52.1,11.4,52.1z"/>
		<path class="st5" d="M19.3,48.2h0.8l-1.3,4.5H18l-1.1-3.4l-1.1,3.4H15l-1.3-4.5h0.8l0.9,3.3l1.1-3.3h0.8l1.1,3.3L19.3,48.2z"/>
	</g>
	<g>
		<path class="st5" d="M87.5,52.7v-1.9h-2.1v1.9h-0.8v-4.5h0.8v1.9h2.1v-1.9h0.8v4.5H87.5z"/>
		<path class="st5" d="M89.3,52.7v-4.5h0.8v4.5H89.3z"/>
		<path class="st5" d="M94.6,52.7l-0.1-0.6c-0.2,0.3-0.7,0.7-1.4,0.7c-1.2,0-2.2-0.9-2.2-2.4c0-1.5,1.1-2.3,2.3-2.3
			c1.1,0,1.8,0.6,2,1.4l-0.7,0.3c-0.2-0.5-0.6-0.9-1.3-0.9c-0.7,0-1.5,0.5-1.5,1.6c0,1.1,0.7,1.7,1.5,1.7c0.9,0,1.3-0.6,1.3-1H93
			v-0.7h2.2v2.3H94.6z"/>
		<path class="st5" d="M99,52.7v-1.9h-2.1v1.9h-0.8v-4.5h0.8v1.9H99v-1.9h0.8v4.5H99z"/>
	</g>
</g>
</svg>
