<?xml version="1.0" encoding="utf-8"?>
<!-- Generator: Adobe Illustrator 23.0.1, SVG Export Plug-In . SVG Version: 6.00 Build 0)  -->
<svg version="1.1" id="Layer_1" xmlns="http://www.w3.org/2000/svg" xmlns:xlink="http://www.w3.org/1999/xlink" x="0px" y="0px"
	 viewBox="0 0 105 60" style="enable-background:new 0 0 105 60;" xml:space="preserve">
<style type="text/css">
	.st0{fill:#6DC921;}
	.st1{fill:#BBD11E;}
	.st2{fill:#ED0F01;}
	.st3{fill:#FFAD29;}
	.st4{fill:#333333;}
	.st5{fill:#FFFFFF;}
</style>
<g>
	<g>
		<path class="st0" d="M18,20.6l13.7,13.7c-5.4,5.4-8.7,12.8-8.7,21H3.7c0-6.6,1.3-13,3.9-19.1C10,30.4,13.5,25.1,18,20.6"/>
		<path class="st1" d="M52.7,25.6c-8.2,0-15.6,3.3-21,8.7L18,20.6c4.5-4.5,9.8-8,15.6-10.5c6.1-2.6,12.5-3.9,19.1-3.9V25.6z"/>
		<path class="st2" d="M87.4,20.6c4.5,4.5,8,9.8,10.5,15.6c2.6,6.1,3.9,12.5,3.9,19.1H82.5c0-8.2-3.3-15.6-8.7-21L87.4,20.6z"/>
		<path class="st3" d="M73.8,34.3c-5.4-5.4-12.8-8.7-21-8.7V6.3c6.6,0,13,1.3,19.1,3.9c5.8,2.5,11.1,6,15.6,10.5L73.8,34.3z"/>
		<path class="st4" d="M47.3,51.6c0,2.6,2.1,4.7,4.7,4.7c2.6,0,4.7-2.1,4.7-4.7c0-2.6-4.7-36.2-4.7-36.2S47.3,49,47.3,51.6"/>
	</g>
</g>
<g>
	<path class="st5" d="M5.8,53.7V49h0.8v3.9h2.1v0.7H5.8z"/>
	<path class="st5" d="M11.2,48.9c1.2,0,2.4,0.9,2.4,2.4c0,1.5-1.1,2.4-2.4,2.4c-1.2,0-2.4-0.9-2.4-2.4C8.9,49.8,10,48.9,11.2,48.9z
		 M11.2,53c0.8,0,1.6-0.6,1.6-1.7s-0.8-1.7-1.6-1.7c-0.8,0-1.6,0.6-1.6,1.7S10.5,53,11.2,53z"/>
	<path class="st5" d="M19.4,49h0.8l-1.3,4.7h-0.8L17,50.1l-1.1,3.5H15L13.7,49h0.8l0.9,3.4l1.1-3.4h0.8l1.1,3.4L19.4,49z"/>
</g>
<g>
	<path class="st5" d="M87.2,53.8v-2H85v2h-0.8v-4.7H85v1.9h2.2v-1.9H88v4.7H87.2z"/>
	<path class="st5" d="M89.1,53.8v-4.7h0.8v4.7H89.1z"/>
	<path class="st5" d="M94.5,53.8l-0.1-0.6c-0.2,0.3-0.7,0.7-1.4,0.7c-1.2,0-2.3-0.9-2.3-2.4c0-1.5,1.1-2.4,2.3-2.4
		c1.1,0,1.9,0.6,2.1,1.4l-0.7,0.3c-0.2-0.5-0.6-1-1.4-1c-0.8,0-1.5,0.5-1.5,1.7c0,1.1,0.7,1.7,1.5,1.7c0.9,0,1.3-0.6,1.3-1h-1.5
		v-0.7h2.3v2.4H94.5z"/>
	<path class="st5" d="M99.1,53.8v-2h-2.2v2h-0.8v-4.7h0.8v1.9h2.2v-1.9h0.8v4.7H99.1z"/>
</g>
</svg>
