<?xml version="1.0" encoding="utf-8"?>
<!-- Generator: Adobe Illustrator 23.0.1, SVG Export Plug-In . SVG Version: 6.00 Build 0)  -->
<svg version="1.1" id="Layer_1" xmlns="http://www.w3.org/2000/svg" xmlns:xlink="http://www.w3.org/1999/xlink" x="0px" y="0px"
	 viewBox="0 0 100 100" style="enable-background:new 0 0 100 100;" xml:space="preserve">
<style type="text/css">
	.st0{fill:#FFFFFF;}
	.st1{fill:#3292CC;}
	.st2{fill:#4EA8DE;}
	.st3{fill:#1E3659;}
</style>
<path class="st0" d="M98.1,58.6C102.9,32.1,85.4,6.8,59,1.9C32.5-2.9,7.2,14.6,2.3,41c-4.9,26.4,12.6,51.8,39.1,56.7
	S93.2,85,98.1,58.6"/>
<path class="st3" d="M94.7,58C99.2,33.4,82.9,9.8,58.4,5.3C33.8,0.8,10.2,17,5.7,41.6C1.2,66.2,17.4,89.8,42,94.3
	C66.6,98.8,90.2,82.5,94.7,58"/>
<path class="st0" d="M87,56.6C90.8,36.2,77.3,16.7,57,13C36.6,9.2,17.1,22.7,13.4,43c-3.7,20.3,9.7,39.9,30.1,43.6
	S83.3,76.9,87,56.6"/>
<path class="st3" d="M68.3,41.9c-0.4-2.1-2.1-5.3-6.9-5.3c-3.5,0-5.9,2.3-5.9,4.8c0,2.1,1.4,3.7,4.1,4.2l5.2,1
	c6.9,1.4,10.5,5.8,10.5,11.1c0,5.8-4.8,11.6-13.5,11.6c-9.9,0-12.6-7.3-14.1-12.2l4.6-1.3c0.1,1.6,4.2,6.9,9.6,6.9c3.9,0,6-2,6-4.6
	c0-2.2-1.6-3.9-4.5-4.4l-5.2-1.1c-6-1.2-9.8-5.1-9.8-10.7c0-6.7,6-11.7,13.1-11.7c9.1,0,12.6,5.5,13.4,9.7L68.3,41.9z"/>
<polyline class="st3" points="48,49.3 33.9,69.1 25.1,69.1 39.1,49.8 25.5,31.2 34.5,31.2 "/>
<path class="st3" d="M50.5,52.4l-4,6l7.3,10.9h0.5h8.5C60.2,65.8,52.8,55.3,50.5,52.4"/>
<rect x="59.7" y="67.6" class="st3" width="4.7" height="4.6"/>
<rect x="59.8" y="27.7" class="st3" width="4.7" height="4.6"/>
</svg>
