<?xml version="1.0" encoding="utf-8"?>
<!-- Generator: Adobe Illustrator 23.0.1, SVG Export Plug-In . SVG Version: 6.00 Build 0)  -->
<svg version="1.1" id="Layer_1" xmlns="http://www.w3.org/2000/svg" xmlns:xlink="http://www.w3.org/1999/xlink" x="0px" y="0px"
	 viewBox="0 0 100 100" style="enable-background:new 0 0 100 100;" xml:space="preserve">
<style type="text/css">
	.st0{fill:#FFFFFF;}
	.st1{fill:#3292CC;}
	.st2{fill:#4EA8DE;}
	.st3{fill:#1E3659;}
</style>
<path class="st0" d="M97.8,59c4.9-26.4-12.6-51.8-39.1-56.7C32.3-2.5,6.9,15,2.1,41.4c-4.9,26.4,12.6,51.8,39.1,56.7
	S93,85.5,97.8,59"/>
<path class="st1" d="M94.6,58.6C99.1,34,82.8,10.4,58.2,5.9C33.7,1.4,10.1,17.6,5.6,42.2C1,66.8,17.3,90.4,41.9,94.9
	C66.5,99.4,90,83.1,94.6,58.6"/>
<path class="st0" d="M86.9,57.1c3.7-20.3-9.7-39.9-30.1-43.6C36.5,9.8,17,23.3,13.2,43.6S23,83.5,43.3,87.2
	C63.6,90.9,83.1,77.5,86.9,57.1"/>
<path class="st1" d="M28.6,44.6c-1.7,0-3.4-1.7-3.4-3.4c0-1.7,1.7-3.1,3.4-3.1c1.7,0,3.4,1.7,3.4,3.4C32.1,43.2,30.7,44.6,28.6,44.6
	"/>
<path class="st1" d="M32.1,56.2c0,1.7-1.4,3.4-3.4,3.4c-1.7,0-3.4-1.4-3.4-3.4c0-1.7,1.4-3.4,3.1-3.4C30.7,53.1,32.1,54.5,32.1,56.2
	"/>
<path class="st1" d="M50.9,35.3c-1.4,0.3-2.7-0.7-3.1-2.4c0-1.4,1-2.7,2.4-2.7c1.4,0,2.7,1,2.7,2.7C53.3,33.9,52.3,35,50.9,35.3"/>
<path class="st1" d="M36.5,48c1,0,1.4,0.7,1.4,1.4c0,0.7-0.7,1.4-1.4,1.4c-1,0-1.4-0.7-1.4-1.7C35.2,48.7,35.8,47.6,36.5,48"/>
<polyline class="st1" points="55,49.4 39.6,70.9 30,70.9 45.4,49.7 30.7,29.5 40.6,29.5 "/>
<path class="st1" d="M57.8,52.8l-4.5,6.5l7.9,12h0.3h9.3C68.4,67.5,60.2,55.9,57.8,52.8"/>
<polyline class="st1" points="50.6,43.2 60.2,29.5 69.8,29.5 45.8,62.7 "/>
<path class="st1" d="M63.2,48c1,0,1.4,0.7,1.4,1.4c0,0.7-0.7,1.4-1.4,1.4c-1,0-1.4-0.7-1.4-1.7C61.5,48.7,62.2,47.6,63.2,48"/>
<path class="st1" d="M50.9,69.2c-1.4,0.3-2.7-0.7-3.1-2.4c0-1.4,1-2.7,2.4-2.7c1.4,0,2.7,1,2.7,2.7C53.3,67.9,52.3,68.9,50.9,69.2"
	/>
<path class="st1" d="M71.5,44.6c-1.7,0-3.4-1.7-3.4-3.4c0-1.7,1.7-3.1,3.4-3.1c1.7,0,3.4,1.7,3.4,3.4C74.9,43.2,73.2,44.6,71.5,44.6
	"/>
<path class="st1" d="M74.9,56.2c0,1.7-1.4,3.4-3.4,3.4c-1.7,0-3.4-1.4-3.4-3.4c0-1.7,1.4-3.4,3.1-3.4C73.2,53.1,74.9,54.5,74.9,56.2
	"/>
</svg>
