<?xml version="1.0" encoding="utf-8"?>
<!-- Generator: Adobe Illustrator 23.0.1, SVG Export Plug-In . SVG Version: 6.00 Build 0)  -->
<svg version="1.1" id="Layer_1" xmlns="http://www.w3.org/2000/svg" xmlns:xlink="http://www.w3.org/1999/xlink" x="0px" y="0px"
	 viewBox="0 0 100 100" style="enable-background:new 0 0 100 100;" xml:space="preserve">
<style type="text/css">
	.st0{fill:#FFFFFF;}
	.st1{fill:#3292CC;}
	.st2{fill:#4EA8DE;}
	.st3{fill:#1E3659;}
</style>
<path class="st0" d="M97.1,58.6C101.9,32.1,84.4,6.8,58,1.9C31.5-2.9,6.2,14.6,1.3,41c-4.9,26.4,12.6,51.8,39.1,56.7
	S92.2,85,97.1,58.6"/>
<path class="st2" d="M94,58.2c4.5-24.6-11.7-48.2-36.3-52.7C33.1,1,9.5,17.3,5,41.9C0.5,66.5,16.7,90,41.3,94.6
	C65.9,99.1,89.5,82.8,94,58.2"/>
<path class="st0" d="M86.3,56.8C90,36.5,76.6,17,56.2,13.2c-20.3-3.7-39.9,9.7-43.6,30.1s9.7,39.9,30.1,43.6S82.6,77.2,86.3,56.8"/>
<polyline class="st2" points="73.4,49.2 67.9,56.9 64.5,56.9 70,49.3 64.7,42.1 68.2,42.1 "/>
<path class="st2" d="M28.7,71.3c0,0,0-0.1,0.1-0.1c9-12.3,18-24.6,27.1-36.9c1.3-1.7,2.5-3.5,3.8-5.2c0.1-0.1,0.1-0.1,0.2-0.1
	c3.2,0,6.4,0,9.5,0h0.2c0,0.1-0.1,0.1-0.1,0.2c-2.5,3.5-5.1,6.9-7.6,10.4C54.1,50,46.4,60.5,38.7,71.1c0,0.1-0.1,0.1-0.1,0.2H28.7z"
	/>
<path class="st2" d="M39.2,28.9c0.6,0.9,1.2,1.8,1.9,2.7c2.3,3.2,4.5,6.5,6.8,9.7c0.1,0.1,0.1,0.2,0,0.3c-1.6,2-3.2,4.1-4.7,6.1
	c0,0-0.1,0.1-0.1,0.1c-0.4-0.5-0.7-1-1.1-1.5c-4.2-5.7-8.4-11.5-12.6-17.2c0,0,0-0.1-0.1-0.1H39.2z"/>
<path class="st2" d="M70.1,71.2h-0.2c-3.2,0-6.4,0-9.6,0c-0.1,0-0.2,0-0.2-0.1c-3-4.2-5.9-8.4-8.9-12.6c-0.1-0.1-0.1-0.1,0-0.2
	c1.6-2.2,3.2-4.4,4.8-6.6c0,0,0.1-0.1,0.1-0.1C60.7,58.1,65.4,64.7,70.1,71.2"/>
<polyline class="st2" points="30.7,42.1 34.2,42.1 28.9,49.3 34.4,56.8 31,56.8 25.5,49.1 "/>
</svg>
