<?xml version="1.0" encoding="utf-8"?>
<!-- Generator: Adobe Illustrator 23.0.1, SVG Export Plug-In . SVG Version: 6.00 Build 0)  -->
<svg version="1.1" id="Layer_1" xmlns="http://www.w3.org/2000/svg" xmlns:xlink="http://www.w3.org/1999/xlink" x="0px" y="0px"
	 viewBox="0 0 68 46" style="enable-background:new 0 0 68 46;" xml:space="preserve">
<style type="text/css">
	.st0{fill:#FFFFFF;stroke:#C8C8C8;stroke-miterlimit:10;}
	.st1{fill:#C8C8C8;stroke:#C8C8C8;stroke-width:0.25;stroke-linecap:round;stroke-linejoin:round;}
	.st2{fill:#C7C7C7;stroke:#C7C7C7;stroke-width:0.25;stroke-linecap:round;stroke-linejoin:round;}
	.st3{fill:#EBEBEB;stroke:#EBEBEB;stroke-width:0.25;stroke-linecap:round;stroke-linejoin:round;}
	.st4{fill:#B9B9B9;stroke:#B9B9B9;stroke-width:0.25;stroke-linecap:round;stroke-linejoin:round;}
	.st5{fill:#C1C1C1;stroke:#C1C1C1;stroke-width:0.25;stroke-linecap:round;stroke-linejoin:round;}
	.st6{fill:#C9C9C9;stroke:#C9C9C9;stroke-width:0.25;stroke-linecap:round;stroke-linejoin:round;}
	.st7{fill:#E5E5E5;stroke:#E5E5E5;stroke-width:0.25;stroke-linecap:round;stroke-linejoin:round;}
	.st8{fill:#9D9D9D;stroke:#9D9D9D;stroke-width:0.25;stroke-linecap:round;stroke-linejoin:round;}
	.st9{fill:#AEAEAE;stroke:#AEAEAE;stroke-width:0.25;stroke-linecap:round;stroke-linejoin:round;}
	.st10{fill:#CDCFD1;}
	.st11{fill:#007FEA;stroke:#007FEA;stroke-width:0.25;stroke-linecap:round;stroke-linejoin:round;}
	.st12{fill:#007EE9;stroke:#007EE9;stroke-width:0.25;stroke-linecap:round;stroke-linejoin:round;}
	.st13{fill:#00C7FF;stroke:#00C7FF;stroke-width:0.25;stroke-linecap:round;stroke-linejoin:round;}
	.st14{fill:#003CFF;stroke:#003CFF;stroke-width:0.25;stroke-linecap:round;stroke-linejoin:round;}
	.st15{fill:#006AEC;stroke:#006AEC;stroke-width:0.25;stroke-linecap:round;stroke-linejoin:round;}
	.st16{fill:#007DE9;stroke:#007DE9;stroke-width:0.25;stroke-linecap:round;stroke-linejoin:round;}
	.st17{fill:#008CE3;stroke:#008CE3;stroke-width:0.25;stroke-linecap:round;stroke-linejoin:round;}
	.st18{fill:#00B4FF;stroke:#00B4FF;stroke-width:0.25;stroke-linecap:round;stroke-linejoin:round;}
	.st19{fill:#001EDA;stroke:#001EDA;stroke-width:0.25;stroke-linecap:round;stroke-linejoin:round;}
	.st20{fill:#0046DE;stroke:#0046DE;stroke-width:0.25;stroke-linecap:round;stroke-linejoin:round;}
	.st21{fill:#4EA8DE;}
	.st22{fill:#14213D;}
	.st23{fill:#04699B;}
	.st24{fill:#132C44;}
	.st25{fill:#164063;}
	.st26{fill:#599EC9;}
	.st27{fill:#C0AC9D;}
	.st28{fill:#195475;}
	.st29{fill:#53B1E5;}
	.st30{fill:#123C66;}
	.st31{fill:#171515;}
	.st32{fill:#95C2DE;}
	.st33{fill:#282F3D;}
	.st34{fill:#4E829B;}
	.st35{fill:#2B3844;}
	.st36{fill:#3C5163;}
	.st37{fill:#90B3C9;}
	.st38{fill:#C0B6AE;}
	.st39{fill:#466475;}
	.st40{fill:#9BCAE5;}
	.st41{fill:#3B5166;}
	.st42{fill:#171616;}
	.st43{fill:#C8C8C8;}
	.st44{fill:#8D8D8D;}
	.st45{fill:#A6A6A6;}
	.st46{fill:#919191;}
	.st47{fill:#999999;}
	.st48{fill:#C5C5C5;}
	.st49{fill:#D7D7D7;}
	.st50{fill:#A1A1A1;}
	.st51{fill:#CCCCCC;}
	.st52{fill:#979797;}
	.st53{fill:#888888;}
	.st54{fill:none;stroke:#B3B3B3;stroke-width:0.5;stroke-miterlimit:10;}
</style>
<path class="st32" d="M56.8,24.6c0.4,1.8,1.1,3.5,1.7,5.3c0.1,0.5,0.4,0.8,0.4,1.4h-5.7h-1.6c-0.7,0.1-1.5-0.2-2.1,0.1
	c-0.5,0.2-0.7,0.6-1.1,0.8c-0.7,0.6-1.6,1-2.1,1.9H46c-0.3-0.3-0.7-0.4-1-0.4h-2.5c-0.5,0-0.8,0.1-1.1,0.4h-0.2
	c-0.9-1-2.1-1.9-3.3-2.7c-0.2-0.2-0.5-0.1-0.7-0.1h-3.1h-5.7c0.5-1.9,1.2-3.7,1.7-5.6c0.1-0.4,0.3-0.7,0.3-1.1
	c0.2-0.1,0.4-0.1,0.6-0.2c2-0.6,3.9-1.1,6-1.7c0,0.3-0.3,0.5-0.4,0.7c-0.4,0.7-1,1.3-1.2,2c-0.3,0.3,0,0.5,0.2,0.7
	c0.3,1,0.9,1.8,1.3,2.7c0.3,0.7,0.6,1.3,1,1.8c-0.2-0.7-0.1-1.5-0.1-2.2h0.4c0.9,0.5,2,0.7,3,1c0.4,0.3,0.3,0.7,0.4,1
	c0.2,0.7,0.3,1.3,0.4,2c0.1-1.7,0.1-3.4,0.1-5.1c0-0.1-0.1-0.2-0.2-0.3v-1c-0.1-2-0.2-4-0.3-6c0-0.3-0.1-0.5-0.4-0.5
	c0.7-0.7-0.2-0.8-0.5-1.1c0.5-0.1,0.3-0.3,0.2-0.6c-0.5-1.2-0.9-2.5-1.4-3.7h8.4c-0.5,1.6-1.2,3-1.6,4.6c-0.2,0.3-0.4,0.7,0,0.9
	c-0.3,0-0.4,0.2-0.4,0.5c-0.1,2-0.2,4-0.3,6v1c-0.1,0.1-0.2,0.2-0.2,0.3v4.7c0.2-0.3,0.2-0.6,0.3-0.8c0.2-0.6,0.1-1.3,0.6-1.8
	c1-0.3,2-0.5,3.1-0.9h0.4v2.2c0.7-1.1,1.2-2.3,1.9-3.4c0.2-0.4,0.5-0.7,0.5-1c0-0.2,0.5-0.3,0.2-0.6c0-0.3-0.2-0.5-0.4-0.7
	c-0.5-0.7-1-1.3-1.3-2c0.1,0,0.3,0,0.4,0.1C52.7,23.4,54.7,24,56.8,24.6"/>
<path class="st33" d="M46.2,19.4c-0.4-0.3-0.2-0.7,0-0.9c0.3,0,0.6-0.2,0.7-0.4c2.3-1.7,4.7-3.4,6.9-5.1c1-0.8,2.2-1.5,3.2-2.4
	c0.4-0.4,0.6-0.3,0.7,0.2c0,0.2,0.1,0.3,0.1,0.5c0.4,1.3,1.1,2.6,1.2,3.9c0.1,1.3-0.5,2.7-0.7,4c-0.1,0.5-0.3,0.8,0.3,1.2
	c0.4,0.3-0.1,0.4-0.3,0.5c-0.4,0.3-0.6,0.5,0,0.7c0.6,0.3,0,0.5-0.2,0.7c-0.2,0.3-0.7,0.4-0.1,0.7c0.2,0.1,0.1,0.3-0.1,0.5
	c-0.4,0.5-0.7,0.8-1.1,1.3c-2-0.6-4.1-1.2-6.1-1.8c-0.1,0-0.3,0-0.4-0.1c-0.3-0.2-0.6-0.4-0.7-0.6C48.4,21.3,47.3,20.3,46.2,19.4"/>
<path class="st33" d="M40.6,18.3c0.2,0.4,1.1,0.5,0.5,1.1c-0.2,0.2-0.4,0.3-0.6,0.5c-1.2,0.9-2.2,2-3.5,2.9c-2,0.6-3.9,1.1-6,1.7
	c-0.3,0.1-0.5,0.1-0.7,0.1c-0.3-0.4-0.7-0.7-0.9-1.1c-0.3-0.3-0.6-0.5,0-0.8c0.3-0.2-0.2-0.4-0.4-0.6c-0.3-0.3-0.6-0.5,0-0.7
	c0.5-0.3,0.1-0.4-0.1-0.6c-0.3-0.2-0.7-0.5-0.1-0.7c0.3-0.1,0.2-0.4,0.1-0.6c-0.3-1.4-0.6-2.7-0.8-4.1C28,15,28,14.7,28.2,14.5
	c0.5-1.3,0.8-2.5,1.3-3.8c0.2-0.5,0.4-0.6,0.7-0.2c0.9,0.9,2,1.6,3,2.3C35.6,14.7,38.1,16.4,40.6,18.3"/>
<path class="st34" d="M53.2,31.2h5.7c-0.5,2.1-1.2,4.2-1.8,6.3c-0.1,0.3-0.2,0.4-0.6,0.3c-2.1-0.7-4.2-1.2-6.3-1.8
	c0.2-0.7,0.7-1.1,1-1.7C51.8,33.4,52.6,32.3,53.2,31.2"/>
<path class="st34" d="M28.4,31.2h5.7c0.5,0.7,1,1.6,1.5,2.3C36,34.4,36.8,35,37,36v0.1c-2,0.6-4.1,1.1-6.1,1.7
	c-0.3,0.1-0.6,0.2-0.7-0.3C29.6,35.5,28.9,33.4,28.4,31.2"/>
<path class="st35" d="M57.1,10.5c-0.9,0.9-2.1,1.7-3.2,2.4c-2.3,1.8-4.7,3.4-6.9,5.1c-0.3,0.2-0.5,0.4-0.7,0.4
	c0.4-1.6,1.1-3.1,1.6-4.6C50.8,12.7,53.9,11.5,57.1,10.5"/>
<path class="st34" d="M40.6,18.3c-2.5-1.9-4.9-3.6-7.4-5.5c-1-0.7-2.1-1.4-3-2.3c2,0.7,4,1.5,6,2.1c1.1,0.4,2.2,0.8,3.4,1.3
	c0.5,1.2,0.9,2.5,1.4,3.7C40.9,17.9,41,18.2,40.6,18.3"/>
<path class="st32" d="M49.7,36.2c-1.1,1.2-2.5,2-3.8,2.9c-0.1,0.1-0.3,0.1-0.5,0.1h-0.7c-3.1,0.6-5.3-0.8-7.4-2.8
	c0.3-0.3,0.5,0,0.7,0.1c0.8,0.5,1.7,0.8,2.6,1.2c0.1-0.3,0.2-0.6,0.2-0.8v-0.2c0.1-0.1,0.3-0.1,0.4-0.1h4c0.3,0,0.5,0.2,0.7,0.3
	c0.1,0.7,0.3,0.8,1,0.6C48,36.9,48.8,36.3,49.7,36.2"/>
<path class="st36" d="M53.2,31.2c-0.6,1.1-1.4,2.1-2,3.2c-0.4,0.6-0.7,1.1-1,1.7c-0.1,0-0.2-0.1-0.3-0.1v-0.1
	c-0.1-1.5-0.5-3-0.5-4.5c0.7-0.3,1.5-0.1,2.1-0.1C52.1,31.2,52.6,31.2,53.2,31.2"/>
<path class="st37" d="M41,36.7C41,37,41,37.3,40.9,37.6c-0.9-0.4-1.8-0.7-2.6-1.2c-0.2-0.1-0.5-0.4-0.7-0.1
	c-0.2-0.1-0.3-0.1-0.5-0.2V36c0.1-0.1,0.2-0.1,0.3-0.2c1.2-0.7,2.5-1.2,3.7-1.9h0.2c0,0.8-0.3,1.7-0.2,2.6
	C40.9,36.6,41,36.7,41,36.7"/>
<path class="st38" d="M49.9,36c0,0.1-0.1,0.1-0.1,0.2C49.8,36.1,49.8,36.1,49.9,36"/>
<path class="st34" d="M46.2,19.4c1.1,0.9,2.2,1.9,3.4,2.8c0.3,0.2,0.5,0.4,0.7,0.6c0.3,0.7,0.9,1.4,1.3,2c0.1,0.2,0.3,0.5,0.4,0.7
	c-0.3,0.1-0.6,0.2-0.8,0.2c-1.9-0.1-3.7,0.3-5.6,0.2c0.1-2,0.2-4,0.3-6C45.8,19.6,45.9,19.4,46.2,19.4"/>
<path class="st34" d="M36.9,22.8c1.3-0.8,2.3-2,3.5-2.9c0.2-0.2,0.4-0.3,0.6-0.5c0.3,0,0.4,0.2,0.4,0.5c0.1,2,0.2,4,0.3,6
	c-1.8-0.1-3.5-0.1-5.2-0.2c-0.4,0-0.7,0-1.2-0.2c0.3-0.7,0.8-1.4,1.2-2C36.6,23.2,36.9,23,36.9,22.8"/>
<path class="st33" d="M41,36.6c-0.1-0.8,0.2-1.7,0.2-2.6c0.3-0.4,0.7-0.5,1.1-0.4h2.5c0.5,0,0.7,0.1,1,0.4c0.1,0.7,0,1.3,0.3,2
	c0.1,0.3,0.1,0.6-0.1,0.7c-0.2-0.1-0.4-0.3-0.7-0.3h-4C41.3,36.4,41.1,36.5,41,36.6"/>
<path class="st39" d="M35.2,25.5c0.4,0.1,0.7,0.2,1.2,0.2c1.8,0,3.5,0.1,5.2,0.2v1c-0.2,0.3-0.2,0.7-0.3,0.9
	c-0.1,0.4,0.1,0.9-0.5,1.1c-0.3-0.5-0.5-1.2-0.8-1.4c-0.5-0.2-1,0.4-1.6,0.7c-0.2,0.1-0.3,0.1-0.5,0.2h-0.4
	c-0.7-0.8-1.4-1.6-2.2-2.2C35.3,26,35,25.8,35.2,25.5"/>
<path class="st39" d="M45.5,25.8c1.9,0.1,3.7-0.3,5.6-0.2c0.3,0,0.6-0.1,0.8-0.2c0.3,0.3-0.1,0.4-0.2,0.6c-0.8,0.7-1.6,1.4-2.2,2.2
	h-0.4c-0.2-0.1-0.3-0.1-0.5-0.2c-0.6-0.2-1.1-0.7-1.6-0.7c-0.6,0.1-0.6,0.9-0.9,1.4c-0.3,0-0.3-0.3-0.4-0.5
	c-0.1-0.6-0.1-1.1-0.5-1.6C45.5,26.6,45.5,26.2,45.5,25.8"/>
<path class="st36" d="M37.3,35.9C37.2,36,37.1,36,37,36.1c-0.3-0.9-1-1.7-1.5-2.4c-0.5-0.8-1-1.6-1.5-2.3h3.1c0.3,0,0.5-0.1,0.7,0.1
	C37.8,32.9,37.4,34.4,37.3,35.9"/>
<path class="st40" d="M49.4,31.4c0,1.5,0.4,3,0.5,4.5c-1.2-0.7-2.5-1.2-3.7-1.9c0.6-0.7,1.4-1.2,2.1-1.9
	C48.7,31.9,49,31.5,49.4,31.4"/>
<path class="st40" d="M37.3,35.9c0.1-1.5,0.5-3,0.5-4.5c1.1,0.8,2.3,1.6,3.3,2.7C39.8,34.7,38.5,35.2,37.3,35.9"/>
<path class="st37" d="M46.2,34c1.2,0.7,2.5,1.2,3.7,1.9V36l-0.2,0.2c-0.9,0.2-1.8,0.7-2.6,1.1c-0.7,0.4-0.9,0.2-1-0.6
	c0.2-0.2,0.3-0.6,0.1-0.7c-0.3-0.7-0.3-1.3-0.3-2H46.2z"/>
<path class="st41" d="M49.5,28.4c0.7-0.8,1.4-1.6,2.2-2.2c0.1,0.5-0.3,0.7-0.5,1c-0.6,1.1-1.2,2.3-1.9,3.4
	C49.6,29.9,49.5,29.2,49.5,28.4"/>
<path class="st41" d="M35.4,26.2c0.8,0.7,1.6,1.4,2.2,2.2c0,0.7-0.1,1.5,0.1,2.2c-0.5-0.6-0.7-1.2-1-1.8
	C36.3,28,35.6,27.1,35.4,26.2"/>
<path class="st33" d="M38,28.4c0.2-0.1,0.3-0.1,0.5-0.2c0.6-0.2,1.1-0.8,1.6-0.7c0.4,0.2,0.6,0.9,0.8,1.4c0,0.1,0.1,0.3,0.1,0.4
	C39.9,29,38.9,28.9,38,28.4"/>
<path class="st33" d="M46.4,29c0.4-0.5,0.4-1.3,0.9-1.4c0.5-0.1,1,0.4,1.6,0.7c0.2,0.1,0.3,0.1,0.5,0.2c-0.9,0.5-2,0.7-3.1,0.9
	C46.3,29.3,46.3,29.1,46.4,29"/>
<path class="st41" d="M41,29.4c0-0.1-0.1-0.3-0.1-0.4c0.6-0.2,0.4-0.7,0.5-1.1c0.1-0.3,0.1-0.7,0.3-0.9c0.1,0.1,0.2,0.2,0.2,0.3
	c0,1.7,0,3.4-0.1,5.1c-0.1-0.7-0.3-1.3-0.4-2C41.2,30,41.3,29.6,41,29.4"/>
<path class="st41" d="M46.4,29c0,0.1-0.1,0.2-0.1,0.4c-0.5,0.6-0.4,1.2-0.6,1.8c-0.1,0.3-0.1,0.6-0.3,0.8v-4.7
	c0-0.1,0.1-0.2,0.2-0.3c0.4,0.5,0.4,1.1,0.5,1.6C46,28.8,46,29,46.4,29"/>
<path class="st42" d="M41,36.7c-0.1-0.1-0.2-0.1,0-0.2V36.7z"/>
<path class="st54" d="M59.9,43.3H6.3c-2.1,0-3.6-1.6-3.6-3.6V6.3c0-2.1,1.6-3.6,3.6-3.6H60c1.9,0,3.6,1.6,3.6,3.6v33.3
	C63.5,41.7,62,43.3,59.9,43.3z"/>
<polygon class="st22" points="14.2,21.8 14.2,16.6 16.9,16.6 16.9,21.8 21.9,21.8 21.9,24.3 16.9,24.3 16.9,29.4 14.2,29.4 
	14.2,24.3 9.2,24.3 9.2,21.8 "/>
</svg>
