<?xml version="1.0" encoding="utf-8"?>
<!-- Generator: Adobe Illustrator 23.0.1, SVG Export Plug-In . SVG Version: 6.00 Build 0)  -->
<svg version="1.1" id="Layer_1" xmlns="http://www.w3.org/2000/svg" xmlns:xlink="http://www.w3.org/1999/xlink" x="0px" y="0px"
	 viewBox="0 0 100 100" style="enable-background:new 0 0 100 100;" xml:space="preserve">
     <circle fill="#14213D" stroke="#FFFFFF" strokeWidth="2" strokeMiterlimit="10" cx="50.2" cy="50.3" r="45.8" />
      <g>
        <g>
          <g>
            <path fill="#FFFFFF" d="M70.7,41.4c-0.4-2.3-2.3-5.9-7.6-5.9c-3.9,0-6.5,2.5-6.5,5.3c0,2.3,1.5,4.1,4.5,4.7l5.8,1.1
				c7.6,1.5,11.6,6.4,11.6,12.3c0,6.4-5.3,12.9-15,12.9c-11,0-14-8.1-15.6-13.5l5.1-1.4c0.1,1.8,4.7,7.7,10.6,7.7
				c4.3,0,6.7-2.2,6.7-5.1c0-2.4-1.8-4.3-5-4.9l-5.8-1.2c-6.6-1.3-10.9-5.6-10.9-11.9c0-7.4,6.6-13,14.5-13c10.1,0,14,6.1,14.9,10.8
				L70.7,41.4z"/>
          </g>
          <g>
            <path fill="#4EA8DE" d="M48.2,49.6L32.6,71.6h-9.8l15.6-21.4L23.3,29.5h10" />
            <path fill="#FFFFFF" d="M51,53l-4.4,6.6l8.1,12.1l0.5,0h9.4C61.8,67.9,53.5,56.3,51,53z" />
          </g>
          <rect x="61.2" y="69.9" fill="#FFFFFF" width="5.2" height="5.1" />
        </g>
        <rect x="61.3" y="25.7" fill="#FFFFFF" width="5.2" height="5.1" />
      </g>
</svg>
