<?xml version="1.0" encoding="utf-8"?>
<!-- Generator: Adobe Illustrator 22.0.1, SVG Export Plug-In . SVG Version: 6.00 Build 0)  -->
<svg version="1.1" id="Layer_1" xmlns="http://www.w3.org/2000/svg" xmlns:xlink="http://www.w3.org/1999/xlink" x="0px" y="0px"
	 viewBox="0 0 250 140" style="enable-background:new 0 0 250 140;" xml:space="preserve">
<style type="text/css">
	.st0{fill:#14213D;}
	.st1{fill:none;stroke:#FFFFFF;stroke-width:2;stroke-miterlimit:10;}
	.st2{fill:#FFFFFF;}
	.st3{fill:#4EA8DE;}
	.st4{fill:#FFFFFF;stroke:#FFFFFF;stroke-miterlimit:10;}
</style>
<path class="st0" d="M180.6,4.2c37.6,0,67.7,31.7,65.1,69.9c-2.2,32.2-28.3,58.2-60.4,60.4c-38.1,2.6-69.9-27.5-69.9-65.1
	C115.3,33.4,144.5,4.2,180.6,4.2"/>
<ellipse transform="matrix(0.7067 -0.7075 0.7075 0.7067 3.8601 148.1162)" class="st1" cx="180.6" cy="69.4" rx="65.2" ry="65.3"/>
<path class="st2" d="M209.8,56.7c-0.6-3.3-3.3-8.4-10.8-8.4c-5.6,0-9.3,3.6-9.3,7.5c0,3.3,2.1,5.8,6.4,6.7l8.3,1.6
	c10.8,2.1,16.5,9.1,16.5,17.5c0,9.1-7.5,18.4-21.4,18.4c-15.7,0-19.9-11.5-22.2-19.2l7.3-2c0.1,2.6,6.7,11,15.1,11
	c6.1,0,9.5-3.1,9.5-7.3c0-3.4-2.6-6.1-7.1-7l-8.3-1.7c-9.4-1.9-15.5-8-15.5-17c0-10.5,9.4-18.5,20.7-18.5c14.4,0,19.9,8.7,21.2,15.4
	L209.8,56.7z"/>
<polyline class="st3" points="177.7,68.4 155.5,99.7 141.5,99.7 163.8,69.3 142.3,39.8 156.5,39.8 "/>
<path class="st2" d="M181.7,73.2l-6.3,9.4L187,99.9h0.7h13.4C197.1,94.5,185.3,77.9,181.7,73.2"/>
<rect x="196.2" y="97.3" class="st2" width="7.4" height="7.3"/>
<rect x="196.4" y="34.4" class="st2" width="7.4" height="7.3"/>
<path class="st0" d="M69.4,5.2c37.6,0,67.7,31.7,65.1,69.9c-2.2,32.2-28.3,58.2-60.4,60.4C35.9,138.1,4.1,108,4.1,70.4
	C4.1,34.4,33.3,5.2,69.4,5.2"/>
<ellipse transform="matrix(0.7071 -0.7071 0.7071 0.7071 -29.4598 69.6751)" class="st1" cx="69.4" cy="70.4" rx="65.2" ry="65.3"/>
<g>
	<path class="st3" d="M86.8,41.4c0.3,0.2,0.6,0.5,0.9,0.8c3.1,3.1,6.2,6.2,9.3,9.3c0.9,0.8,0.9,1.3,0,2.2
		C82.6,68.1,68.2,82.5,53.8,97c-0.9,0.9-1.4,0.8-2.2,0c-3-3.1-6.1-6.2-9.2-9.2c-0.9-0.9-1-1.4,0-2.4c14.4-14.3,28.8-28.7,43.2-43.1
		C85.9,42,86.2,41.5,86.8,41.4z"/>
	<path class="st3" d="M114.8,69.8c-0.2,0.2-0.5,0.6-0.8,0.9C99.6,85.1,85.2,99.5,70.8,114c-0.7,0.7-1.2,1-2,0.1
		c-3.1-3.2-6.3-6.4-9.5-9.5c-0.9-0.9-0.7-1.4,0.1-2.2C73.8,88,88.1,73.7,102.5,59.3c0.8-0.8,1.3-1,2.2-0.1c3.1,3.2,6.3,6.3,9.4,9.5
		C114.4,68.9,114.9,69.2,114.8,69.8z"/>
	<path class="st3" d="M80.9,35.4c0,0.6-0.4,0.9-0.7,1.1c-8.9,8.9-17.7,17.7-26.6,26.6c-0.7,0.7-1.1,0.8-1.9,0
		c-3.1-3.2-6.3-6.4-9.5-9.5c-0.8-0.8-0.7-1.3,0-2c8.8-8.8,17.7-17.6,26.5-26.5c0.8-0.8,1.2-0.9,2,0c3.1,3.2,6.2,6.2,9.3,9.3
		C80.4,34.9,80.6,35.2,80.9,35.4z"/>
	<path class="st4" d="M35.7,80.9c-0.4-0.4-0.7-0.6-1-0.9c-3.1-3.1-6.2-6.2-9.3-9.3c-0.8-0.8-0.7-1.3,0-2c3.1-3.1,6.2-6.2,9.3-9.3
		c0.8-0.8,1.2-0.9,2,0c3.1,3.2,6.3,6.3,9.5,9.5c0.6,0.6,0.9,1,0.1,1.7c-3.3,3.2-6.5,6.5-9.8,9.8C36.3,80.5,36,80.7,35.7,80.9z"/>
</g>
</svg>
